<svg xmlns="http://www.w3.org/2000/svg">
  <symbol id="logo" viewBox="0 0 234.549 195.671">
    <line x1="158.121" y1="159.986" x2="233.549" y2="159.986" style="fill: none;stroke: #eef1f1;stroke-width: 2px"/>
    <text transform="translate(148.833 153.929)" style="font-size: 40px;fill: #eef1f1;font-family: PFEncoreSansPro-Light, PF Encore Sans Pro;font-weight: 300">Staff</text>
    <path d="M52.2,114.886l45.1-26,45.1,26v51.9l-45.1,26-45.1-26Z" style="fill:#fc635e;stroke: #fe8682;stroke-width: 5px;"/>
    <text transform="matrix(0.891, 0.334, -0.351, 0.936, 74.247, 153.369)" style="font-size: 65px;fill: #1e1e1e;stroke: #1e1e1e;stroke-width: 2px;font-family: TrueLies, True Lies">S</text>
    <line x1="100.5" y1="73.186" x2="226.527" y2="73.186" style="fill: none;stroke: #eef1f1;stroke-linecap: round;stroke-width: 2px"/>
    <text transform="translate(99.095 67.632)" style="font-size: 40px;fill: #eef1f1;font-family: PFEncoreSansPro-Light, PF Encore Sans Pro;font-weight: 300">Elektrik</text>
    <path d="M2.5,28.886l45.1-26,45.1,26v51.9l-45.1,26-45.1-26Z" style="fill: #fc635e;stroke: #fe8682;stroke-width: 5px;"/>
    <text transform="translate(28.321 71.234) scale(0.9 1)" style="font-size: 50px;fill: #1e1e1e;stroke: #1e1e1e;font-family: TrueLies, True Lies">E</text>
  </symbol>


  <symbol id="logo2" viewBox="0 0 245.5 195.671">
  <g>
    <line class="a" x1="151" y1="159.986" x2="240.67" y2="159.986"/>
    <text class="b" transform="translate(148.833 153.929)">Staff</text>
  </g>
  <g>
    <path class="c" d="M52.2,114.886l45.1-26,45.1,26v51.9l-45.1,26-45.1-26Z"/>
    <text class="d" transform="translate(80.525 154.048)">S</text>
  </g>
  <g>
    <line class="a" x1="100.5" y1="73.186" x2="240.5" y2="73.186"/>
    <text class="b" transform="translate(99.095 67.632)">Elektrik</text>
  </g>
  <g>
    <path class="c" d="M2.5,28.886l45.1-26,45.1,26v51.9l-45.1,26-45.1-26Z"/>
    <text class="d" transform="translate(32.25 68.048)">E</text>
  </g>
  </symbol>

  <symbol id="garantee" viewBox="0 29.212 512 453.577">
    <path
      d="M266.933,34.118,294.07,64.61l36.741-17.787a14.636,14.636,0,0,1,20.2,8.368l13.4,38.557,40.75-2.373a14.634,14.634,0,0,1,15.461,15.461l-2.372,40.75,38.556,13.4a14.637,14.637,0,0,1,8.368,20.2l-17.787,36.741,30.492,27.137a14.634,14.634,0,0,1,0,21.865L447.391,294.07l17.787,36.741a14.635,14.635,0,0,1-8.368,20.2l-38.556,13.4,2.372,40.75a14.634,14.634,0,0,1-15.461,15.461l-40.75-2.372-13.4,38.556a14.637,14.637,0,0,1-20.2,8.368L294.07,447.39l-27.137,30.492a14.634,14.634,0,0,1-21.865,0L217.931,447.39,181.19,465.177a14.636,14.636,0,0,1-20.2-8.368l-13.4-38.556-40.75,2.372a14.634,14.634,0,0,1-15.461-15.461l2.373-40.75-38.557-13.4a14.636,14.636,0,0,1-8.368-20.2L64.61,294.07,34.118,266.933a14.634,14.634,0,0,1,0-21.865L64.61,217.931,46.823,181.19a14.636,14.636,0,0,1,8.368-20.2l38.557-13.4-2.373-40.75a14.634,14.634,0,0,1,15.461-15.461l40.75,2.373,13.4-38.557a14.637,14.637,0,0,1,20.2-8.368L217.931,64.61l27.137-30.492a14.634,14.634,0,0,1,21.865,0Z"
      style="fill: #ffcf5d" />
    <path
      d="M477.882,245.067,447.39,217.93l17.787-36.741a14.636,14.636,0,0,0-8.367-20.2l-38.557-13.4,2.373-40.75a14.635,14.635,0,0,0-15.461-15.461l-40.75,2.372-13.4-38.556a14.636,14.636,0,0,0-20.2-8.367l-13.206,6.393L335.221,103.9A30.9,30.9,0,0,0,366.21,124.6l22.5-1.309-1.31,22.5a30.9,30.9,0,0,0,20.7,30.989l21.289,7.4-9.821,20.285a30.905,30.905,0,0,0,7.271,36.553L443.678,256l-16.835,14.983a30.905,30.905,0,0,0-7.271,36.553l9.821,20.285-21.289,7.4a30.906,30.906,0,0,0-20.7,30.989l1.31,22.5-22.5-1.309a30.917,30.917,0,0,0-30.989,20.706l-7.4,21.287-20.285-9.82a30.906,30.906,0,0,0-36.554,7.271L256,443.679l-14.983-16.836a30.906,30.906,0,0,0-36.554-7.271l-20.285,9.82-7.4-21.287A30.921,30.921,0,0,0,145.789,387.4l-53.562,3.118-.853,14.646a14.636,14.636,0,0,0,15.461,15.462l40.75-2.372,13.4,38.556a14.636,14.636,0,0,0,20.2,8.368l36.741-17.786,27.137,30.492a14.634,14.634,0,0,0,21.865,0l27.137-30.492,36.741,17.786a14.636,14.636,0,0,0,20.2-8.368l13.4-38.556,40.75,2.372a14.635,14.635,0,0,0,15.461-15.462l-2.373-40.75,38.557-13.4a14.636,14.636,0,0,0,8.367-20.2l-17.787-36.741,30.492-27.137A14.633,14.633,0,0,0,477.882,245.067Z"
      style="fill: #ffb545" />
    <circle cx="256" cy="256" r="147.039" style="fill: #ffb545" />
    <path
      d="M193.819,225.61a7.724,7.724,0,0,1-7.726,7.725h-20.6a7.726,7.726,0,0,1,0-15.451h2.576v-21.04a7.728,7.728,0,0,1-8.039-12.75l10.3-10.3a7.725,7.725,0,0,1,13.187,5.462v38.627h2.574a7.725,7.725,0,0,1,7.727,7.726Z"
      style="fill: #3f5f94" />
    <path
      d="M248.992,194.708v15.451a23.176,23.176,0,1,1-46.352,0V194.708a23.176,23.176,0,1,1,46.352,0Zm-15.451,0a7.726,7.726,0,0,0-15.451,0v15.451a7.726,7.726,0,0,0,15.451,0Z"
      style="fill: #3f5f94" />
    <path
      d="M304.187,194.708v15.451a23.176,23.176,0,1,1-46.352,0V194.708a23.176,23.176,0,1,1,46.352,0Zm-15.451,0a7.726,7.726,0,0,0-15.451,0v15.451a7.726,7.726,0,0,0,15.451,0Z"
      style="fill: #3f5f94" />
    <path
      d="M353.258,183,327.51,229.348a7.726,7.726,0,1,1-13.508-7.5l25.75-46.349a7.725,7.725,0,1,1,13.506,7.5Zm-40.228-3.753a7.726,7.726,0,1,1,7.725,7.726A7.723,7.723,0,0,1,313.03,179.247ZM338.781,225.6a7.726,7.726,0,1,1,7.727,7.726A7.725,7.725,0,0,1,338.781,225.6Z"
      style="fill: #3f5f94" />
    <path
      d="M496.547,348.716H15.453A15.453,15.453,0,0,1,0,333.264V271.453A15.454,15.454,0,0,1,15.453,256H496.547A15.454,15.454,0,0,1,512,271.453v61.811A15.453,15.453,0,0,1,496.547,348.716Z"
      style="fill: #3f5f94" />
    <text transform="translate(40.682 328.166)"
      style="font-size: 70px;fill: #ffcf5d;stroke: #ffcf5d;stroke-miterlimit: 10;font-family: ComicSansMS-Bold, Comic Sans MS;font-weight: 700;letter-spacing: 0.11000279017857142em">ГАРАНТИЯ</text>
  </symbol>



  <symbol id="deadlines" viewBox="0 0 58 58">
    <path id="Shape" d="m52 14v12.59l-26.24 24.41h-21.76c-2.209139 0-4-1.790861-4-4v-33z" fill="#ecf0f1" />
    <rect id="Rectangle-path" fill="#95a5a5" height="5" rx="1" width="6" x="4" y="20" />
    <rect id="Rectangle-path" fill="#95a5a5" height="5" rx="1" width="6" x="15" y="20" />
    <rect id="Rectangle-path" fill="#95a5a5" height="5" rx="1" width="6" x="26" y="20" />
    <rect id="Rectangle-path" fill="#95a5a5" height="5" rx="1" width="6" x="15" y="30" />
    <rect id="Rectangle-path" fill="#95a5a5" height="5" rx="1" width="6" x="15" y="40" />
    <rect id="Rectangle-path" fill="#95a5a5" height="5" rx="1" width="6" x="4" y="30" />
    <rect id="Rectangle-path" fill="#95a5a5" height="5" rx="1" width="6" x="4" y="40" />
    <circle id="Oval" cx="40" cy="40" fill="#3b97d3" r="18" />
    <circle id="Oval" cx="40" cy="40" fill="#2980ba" r="16" />
    <path id="Shape"
      d="m54 40c-.0102094 6.2302834-4.1428381 11.7015447-10.1328592 13.4150743-5.990021 1.7135295-12.3909251-.7444671-15.6944804-6.0268016-3.3035552-5.2823346-2.7119976-12.1133945 1.4504498-16.7491865s10.8906096-5.9568348 16.4968898-3.2390862c4.8230375 2.3442004 7.8832595 7.2374487 7.88 12.6z"
      fill="#2fa8cc" />
    <path id="Shape"
      d="m46 33c-.0022237 7.3423284-5.6764256 13.4355483-13 13.96-.6655732.0539997-1.3344268.0539997-2 0-1.2033577-.0759624-2.3908503-.3148065-3.53-.71-.0271673-.0411568-.0505942-.0846639-.07-.13-3.3732226-6.9591889-.4737224-15.3355229 6.48-18.72 1.6030693-.7790664 3.3416344-1.2408727 5.12-1.36.6655933-.0535005 1.3344067-.0535005 2 0 1.2033577.0759624 2.3908503.3148065 3.53.71.0271673.0411568.0505942.0846639.07.13.9239508 1.907711 1.4026525 4.0003209 1.4 6.12z"
      fill="#67b9cc" />
    <g fill="#285680">
      <path id="Shape"
        d="m41 26.04v1.96c0 .5522847-.4477153 1-1 1s-1-.4477153-1-1v-1.96c.33-.03.66-.04 1-.04s.67.01 1 .04z" />
      <path id="Shape"
        d="m34.5 30.47c-.2288501.1362964-.5028629.1749377-.7604798.1072427-.257617-.0676949-.4772366-.2360498-.6095202-.4672427l-.98-1.7c.5544794-.3733084 1.1323323-.7106676 1.73-1.01l.99 1.71c.2713883.4779792.1061364 1.0853915-.37 1.36z" />
      <path id="Shape"
        d="m30.47 34.5c-.1761919.3088972-.5043864.499708-.86.5-.1751242.0007919-.3474391-.04401-.5-.13l-1.71-.99c.2993324-.5976677.6366916-1.1755206 1.01-1.73l1.7.98c.2297442.133628.3968418.3532172.4643886.6102702.0675467.257053.0299853.5304211-.1043886.7597298z" />
      <path id="Shape"
        d="m29 40c0 .5522847-.4477153 1-1 1h-1.96c-.03-.33-.04-.66-.04-1s.01-.67.04-1h1.96c.5522847 0 1 .4477153 1 1z" />
      <path id="Shape"
        d="m30.11 46.87-1.7.98c-.3733084-.5544794-.7106676-1.1323323-1.01-1.73l1.71-.99c.4804877-.2761424 1.0938576-.1104877 1.37.37s.1104877 1.0938576-.37 1.37z" />
      <path id="Shape"
        d="m34.87 50.89-.99 1.71c-.5976677-.2993324-1.1755206-.6366916-1.73-1.01l.98-1.7c.2761424-.4804877.8895123-.6461423 1.37-.37.4804877.2761424.6461424.8895123.37 1.37z" />
      <path id="Shape"
        d="m41 52v1.96c-.33.03-.66.04-1 .04s-.67-.01-1-.04v-1.96c0-.5522847.4477153-1 1-1s1 .4477153 1 1z" />
      <path id="Shape"
        d="m47.85 51.59c-.5544794.3733084-1.1323323.7106676-1.73 1.01l-.99-1.71c-.2761424-.4804877-.1104877-1.0938576.37-1.37.4804877-.2761423 1.0938576-.1104877 1.37.37z" />
      <path id="Shape"
        d="m52.6 46.12c-.2993324.5976677-.6366916 1.1755206-1.01 1.73l-1.7-.98c-.4804877-.2761424-.6461423-.8895123-.37-1.37.2761424-.4804877.8895123-.6461424 1.37-.37z" />
      <path id="Shape"
        d="m54 40c0 .34-.01.67-.04 1h-1.96c-.5522847 0-1-.4477153-1-1s.4477153-1 1-1h1.96c.03.33.04.66.04 1z" />
      <path id="Shape"
        d="m52.6 33.88-1.71.99c-.1525609.08599-.3248758.1307919-.5.13-.4553929.0031839-.8554212-.3017208-.9730546-.7416699-.1176335-.4399491.0768419-.903812.4730546-1.1283301l1.7-.98c.3733084.5544794.7106676 1.1323323 1.01 1.73z" />
      <path id="Shape"
        d="m47.85 28.41-.98 1.7c-.1322836.2311929-.3519032.3995478-.6095202.4672427-.2576169.067695-.5316297.0290537-.7604798-.1072427-.4761364-.2746085-.6413883-.8820208-.37-1.36l.99-1.71c.5976677.2993324 1.1755206.6366916 1.73 1.01z" />
    </g>
    <path id="Shape"
      d="m44 45c-.2651948-.0000566-.5195073-.1054506-.707-.293l-4-4c-.2886867-.2889598-.3726169-.7244471-.212-1.1l3-7c.2225705-.4993742.8049312-.7274312 1.3074258-.5119982.5024946.2154329.7388258.7944852.5305742 1.2999982l-2.733 6.377 3.521 3.522c.2851942.2860871.3702546.7156659.2156011 1.0888467s-.518644.6166641-.9226011.6171533z"
      fill="#bdc3c7" />
    <path id="Shape" d="m52 7v9h-52v-9c0-2.209139 1.790861-4 4-4h44c2.209139 0 4 1.790861 4 4z" fill="#e64c3c" />
    <path id="Shape"
      d="m41 3c1.7799916.69615377 2.9644585 2.39704811 3 4.308-.1669773 2.63882398-2.3558984 4.6936142-5 4.6936142s-4.8330227-2.05479022-5-4.6936142c.0355415-1.91095189 1.2200084-3.61184623 3-4.308z"
      fill="#c03a2b" />
    <path id="Shape"
      d="m15 3c1.7799916.69615377 2.9644585 2.39704811 3 4.308-.0886126 2.67476119-2.3250095 4.773396-5 4.692-2.6749905.081396-4.91138737-2.01723881-5-4.692.03554154-1.91095189 1.22000835-3.61184623 3-4.308z"
      fill="#c03a2b" />
    <rect id="Rectangle-path" fill="#95a5a5" height="8" rx="2" width="4" x="37" />
    <rect id="Rectangle-path" fill="#95a5a5" height="8" rx="2" width="4" x="11" />

  </symbol>



  <symbol id="low_prices" viewBox="0 0 512 512">
    <path
      d="m421 362c-8.291 0-15 6.709-15 15 0 11.32-5.795 21.387-15 27.567-1.194.802-2.232 1.778-3.545 2.433-25.576 12.788-41.455 38.481-41.455 67.075v22.925c0 8.291 6.709 15 15 15s15-6.709 15-15v-22.925c0-13.066 5.581-25.065 15-33.461 2.946-2.626 6.216-4.949 9.873-6.779 21.68-10.839 35.127-32.606 35.127-56.835 0-8.291-6.709-15-15-15z"
      fill="#d9e5ff" />
    <path
      d="m391 392c-8.284 0-15-6.716-15-15v-16c0-16.542 13.458-30 30-30s30 13.458 30 30v16c0 8.284-6.716 15-15 15z"
      fill="#fb3" />
    <path
      d="m196 474.075c0-28.594-15.879-54.287-41.455-67.075-1.313-.656-2.351-1.631-3.545-2.433-9.205-6.18-15-16.247-15-27.567 0-8.291-6.709-15-15-15s-15 6.709-15 15c0 24.229 13.447 45.996 35.127 56.836 3.657 1.827 6.929 4.153 9.873 6.777 9.421 8.395 15 20.394 15 33.463v22.924c0 8.291 6.709 15 15 15s15-6.709 15-15z"
      fill="#d9e5ff" />
    <path
      d="m121 392c-8.284 0-15-6.716-15-15v-16c0-16.542 13.458-30 30-30s30 13.458 30 30v16c0 8.284-6.716 15-15 15z"
      fill="#e64551" />
    <path
      d="m136 0c-74.443 0-136 68.295-136 151 0 83.232 59.975 180 136 180s135-96.768 135-180c0-82.705-60.557-151-135-151z"
      fill="#f66" />
    <path d="m271 151c0-82.705-60.557-151-135-151v331c76.025 0 135-96.768 135-180z" fill="#e64551" />
    <g>
      <circle cx="166" cy="211" fill="#d9e5ff" r="15" />
    </g>
    <g>
      <circle cx="106" cy="121" fill="#ecf2ff" r="15" />
    </g>
    <path
      d="m174.32 108.52c-6.855-4.57-16.172-2.754-20.801 4.16l-17.519 26.279-42.48 63.721c-4.6 6.899-2.725 16.201 4.16 20.801 6.837 4.557 16.152 2.789 20.801-4.16l17.519-26.28 42.48-63.721c4.6-6.899 2.725-16.201-4.16-20.8z"
      fill="#ecf2ff" />
    <path
      d="m174.32 108.52c-6.855-4.57-16.172-2.754-20.801 4.16l-17.519 26.279v54.082l42.48-63.721c4.6-6.899 2.725-16.201-4.16-20.8z"
      fill="#d9e5ff" />
    <path
      d="m406 61c-57.891 0-105 53.833-105 120 0 67.939 46.846 150 105 150s106-82.061 106-150c0-66.167-48.109-120-106-120z"
      fill="#ffd34d" />
    <path d="m512 181c0-66.167-48.109-120-106-120v270c58.154 0 106-82.061 106-150z" fill="#fb3" />
    <path d="m151 392c8.284 0 15-6.716 15-15v-16c0-16.542-13.458-30-30-30v61z" fill="#cc2935" />
    <path d="m421 392c8.284 0 15-6.716 15-15v-16c0-16.542-13.458-30-30-30v61z" fill="#ff8b17" />
  </symbol>
  

  <symbol id="handshake" viewBox="0 0 512.002 512.002">
    <path style="fill:#F29F5C;" d="M418.258,249.103L405.252,143.45l-24.372,3l0.01-0.017l-47.25-26.591
      c-5.04-2.836-10.824-4.07-16.583-3.538l-74.606,6.9c-9.171,0.848-17.366,6.081-21.993,14.045l-52.584,90.508
      c-3.883,6.683-0.835,15.254,6.396,17.985l2.151,0.812c4.138,1.563,8.391,2.468,12.642,2.822l-6.663,5.803l-13.33,11.614
      l-37.913,32.34c-6.749,5.879-7.45,16.109-1.571,22.858l3.846,4.405c7.55,8.658,20.691,9.557,29.365,2.005l14.49,16.62
      c4.711,5.41,11.613,7.803,18.244,6.987c3.985-0.49,7.873-2.142,11.12-4.982l14.474,16.621c4.728,5.424,11.629,7.801,18.26,6.985
      c3.985-0.491,7.874-2.127,11.122-4.966l7.866,6.798c7.552,8.673,20.708,9.57,29.382,2.018l10.693-9.329l89.896-70.012l0.097-0.089
      l35.468-0.035L418.258,249.103z"/>
    <path style="fill:#D37D42;" d="M379.731,267.833l-0.097,0.089l-89.896,70.012l-10.693,9.329c-8.673,7.552-21.83,6.655-29.382-2.018
      l-7.866-6.798c-3.248,2.839-7.138,4.476-11.122,4.966c-6.631,0.816-13.531-1.561-18.26-6.985l-14.474-16.621
      c-3.248,2.839-7.136,4.491-11.12,4.982c-6.631,0.816-13.533-1.576-18.244-6.987l-14.49-16.62
      c-7.426,6.466-18.118,6.718-25.781,1.227c-3.93,5.926-3.616,13.958,1.283,19.582l3.846,4.405c7.55,8.658,20.691,9.557,29.365,2.005
      l14.49,16.62c4.711,5.41,11.613,7.803,18.244,6.987c3.985-0.49,7.872-2.142,11.12-4.982l14.474,16.622
      c4.728,5.424,11.629,7.801,18.26,6.985c3.985-0.491,7.874-2.127,11.122-4.966l7.866,6.798c7.552,8.673,20.708,9.57,29.382,2.018
      l10.693-9.329l89.896-70.012l0.097-0.089l35.468-0.035l-3.924-31.876L379.731,267.833z"/>
    <path style="fill:#F9C295;" d="M396.101,313.533l-48.165-41.53l-13.394-11.54l-9.584-8.254l-41.207-35.52l4.759-40.51
      c1.61-13.701-7.015-26.528-20.311-30.207l-89.825-24.855c-9.504-2.63-19.549,1.78-24.045,10.557l-11.296,22.05l-48.488-3.291
      l-12.42,105.724l-5.398,45.945l47.198,3.139l0.098,0.089l98.602,84.993l10.745,9.27c8.715,7.504,21.866,6.534,29.37-2.181
      l14.38-16.686c3.263,2.821,7.162,4.436,11.15,4.905c6.635,0.78,13.523-1.636,18.221-7.086l14.382-16.701
      c3.263,2.821,7.16,4.452,11.148,4.92c6.635,0.78,13.524-1.651,18.205-7.088l14.397-16.7c8.715,7.504,21.851,6.532,29.353-2.168
      l3.822-4.427C403.64,329.601,402.882,319.375,396.101,313.533z"/>
    <g>
      <path style="fill:#E59F6A;" d="M396.101,313.533l-14.671-12.65c4.768,6.323,4.67,15.318-0.711,21.564l-4.057,4.699
        c-7.964,9.235-21.908,10.267-31.16,2.301l-15.284,17.728c-4.969,5.771-12.282,8.351-19.326,7.524
        c-4.233-0.497-8.37-2.228-11.834-5.223l-15.268,17.73c-4.987,5.785-12.298,8.349-19.342,7.522
        c-4.233-0.497-8.372-2.212-11.836-5.207l-15.266,17.714c-2.876,3.341-6.539,5.592-10.474,6.752l6.499,5.607
        c8.715,7.504,21.866,6.534,29.37-2.181l14.38-16.686c3.263,2.821,7.162,4.436,11.15,4.905c6.635,0.779,13.523-1.636,18.221-7.086
        l14.382-16.701c3.263,2.821,7.16,4.452,11.148,4.92c6.635,0.78,13.524-1.651,18.205-7.088l14.397-16.7
        c8.715,7.504,21.851,6.532,29.353-2.168l3.822-4.427C403.64,329.601,402.882,319.375,396.101,313.533z"/>
      <path style="fill:#E59F6A;" d="M369.5,337.416l-26.392-22.756c-3.135-2.704-7.872-2.354-10.578,0.783
        c-2.705,3.137-2.354,7.873,0.783,10.578l26.345,22.716l4.966-5.76c1.982,1.707,4.199,2.952,6.52,3.791
        C372.857,343.719,372.25,339.787,369.5,337.416z"/>
      <path style="fill:#E59F6A;" d="M327.303,365.627c1.807-3.065,1.228-7.074-1.562-9.48l-23.708-20.441
        c-3.137-2.704-7.872-2.354-10.578,0.783c-2.705,3.137-2.354,7.873,0.783,10.578l23.708,20.441c0.01,0.008,0.02,0.015,0.03,0.023
        l4.898-5.688C322.827,363.532,325.011,364.785,327.303,365.627z"/>
    </g>
    <g>
      <path style="fill:#F29F5C;" d="M126.385,305.135l-5.713,7.544c-6.221,8.215-4.605,19.918,3.61,26.14l0,0
        c8.215,6.221,19.918,4.605,26.14-3.61l5.713-7.544c6.221-8.215,4.605-19.918-3.61-26.14l0,0
        C144.31,295.304,132.606,296.92,126.385,305.135z"/>
      <path style="fill:#F29F5C;" d="M161.181,321.002l-10.759,14.207c-6.221,8.215-4.605,19.918,3.61,26.14l0,0
        c8.215,6.221,19.918,4.605,26.14-3.61l10.759-14.207c6.221-8.215,4.605-19.918-3.61-26.14l0,0
        C179.105,311.171,167.402,312.787,161.181,321.002z"/>
      <path style="fill:#F29F5C;" d="M194.834,338.377l-14.663,19.362c-6.221,8.215-4.605,19.918,3.61,26.14l0,0
        c8.215,6.221,19.918,4.605,26.14-3.61l14.663-19.362c6.221-8.215,4.605-19.918-3.61-26.14l0,0
        C212.759,328.545,201.056,330.162,194.834,338.377z"/>
      <path style="fill:#F29F5C;" d="M225.435,359.783l-15.514,20.485c-6.221,8.215-4.605,19.918,3.61,26.14l0,0
        c8.215,6.221,19.918,4.605,26.14-3.61l15.514-20.485c6.221-8.215,4.605-19.918-3.61-26.14l0,0
        C243.359,349.952,231.656,351.568,225.435,359.783z"/>
      <path style="fill:#F29F5C;" d="M380.89,146.433l-47.25-26.591c-5.04-2.836-10.824-4.07-16.583-3.538l-74.606,6.9
        c-9.171,0.848-17.366,6.081-21.993,14.045l-52.584,90.508c-3.883,6.684-0.835,15.254,6.396,17.985l2.151,0.812
        c19.275,7.28,41.043,1.085,53.596-15.252l20.147-26.22c0,0,48.429,56.073,101.749-9.41"/>
    </g>
    <path style="fill:#5C9CEE;" d="M511.945,309.145l-24.713-200.751c-0.243-1.974-1.26-3.771-2.828-4.995
      c-1.568-1.224-3.557-1.774-5.532-1.532l-57.788,7.114c-15.009,1.848-25.716,15.562-23.868,30.57l19.844,161.2
      c1.708,13.877,13.559,24.076,27.2,24.076c1.112,0,2.239-0.068,3.37-0.207l57.788-7.114
      C509.528,316.999,512.451,313.256,511.945,309.145z"/>
    <path style="fill:#3580D3;" d="M511.945,309.145l-2.713-22.036c-1.23,1.805-3.194,3.095-5.532,3.383l-60.577,7.457
      c-1.186,0.146-2.367,0.217-3.533,0.217c-10.2,0-19.441-5.442-24.553-13.84l2.022,16.424c1.708,13.877,13.559,24.076,27.2,24.076
      c1.112,0,2.239-0.068,3.37-0.207l57.788-7.114C509.528,316.999,512.451,313.256,511.945,309.145z"/>
    <path style="fill:#ED5575;" d="M90.918,108.98l-57.788-7.114c-1.977-0.243-3.964,0.308-5.532,1.532
      c-1.568,1.224-2.585,3.021-2.828,4.995L0.057,309.145c-0.506,4.111,2.417,7.854,6.527,8.36l57.788,7.114
      c1.132,0.139,2.257,0.207,3.37,0.207c13.64,0,25.492-10.2,27.2-24.076l19.844-161.2C116.634,124.542,105.927,110.828,90.918,108.98z
      "/>
    <path style="fill:#CC3A60;" d="M0.057,309.145l2.713-22.036c1.23,1.805,3.194,3.095,5.532,3.383l60.577,7.457
      c1.186,0.146,2.367,0.217,3.533,0.217c10.2,0,19.441-5.442,24.553-13.84l-2.022,16.424c-1.708,13.877-13.559,24.076-27.2,24.076
      c-1.112,0-2.239-0.068-3.37-0.207l-57.788-7.114C2.473,316.999-0.449,313.256,0.057,309.145z"/>
    <g>
      <circle style="fill:#EBEEF2;" cx="464" cy="277.001" r="14.498"/>
      <circle style="fill:#EBEEF2;" cx="47.19" cy="277.001" r="14.498"/>
    </g>

  </symbol>

  <symbol id="whatsapp" viewBox="-180 -180 1000 1000">
    <path d="m544.386719 93.007812c-59.875-59.945312-139.503907-92.9726558-224.335938-93.007812-174.804687 0-317.070312 142.261719-317.140625 317.113281-.023437 55.894531 14.578125 110.457031 42.332032 158.550781l-44.992188 164.335938 168.121094-44.101562c46.324218 25.269531 98.476562 38.585937 151.550781 38.601562h.132813c174.785156 0 317.066406-142.273438 317.132812-317.132812.035156-84.742188-32.921875-164.417969-92.800781-224.359376zm-224.335938 487.933594h-.109375c-47.296875-.019531-93.683594-12.730468-134.160156-36.742187l-9.621094-5.714844-99.765625 26.171875 26.628907-97.269531-6.269532-9.972657c-26.386718-41.96875-40.320312-90.476562-40.296875-140.28125.054688-145.332031 118.304688-263.570312 263.699219-263.570312 70.40625.023438 136.589844 27.476562 186.355469 77.300781s77.15625 116.050781 77.132812 186.484375c-.0625 145.34375-118.304687 263.59375-263.59375 263.59375zm144.585938-197.417968c-7.921875-3.96875-46.882813-23.132813-54.148438-25.78125-7.257812-2.644532-12.546875-3.960938-17.824219 3.96875-5.285156 7.929687-20.46875 25.78125-25.09375 31.066406-4.625 5.289062-9.242187 5.953125-17.167968 1.984375-7.925782-3.964844-33.457032-12.335938-63.726563-39.332031-23.554687-21.011719-39.457031-46.960938-44.082031-54.890626-4.617188-7.9375-.039062-11.8125 3.476562-16.171874 8.578126-10.652344 17.167969-21.820313 19.808594-27.105469 2.644532-5.289063 1.320313-9.917969-.664062-13.882813-1.976563-3.964844-17.824219-42.96875-24.425782-58.839844-6.4375-15.445312-12.964843-13.359374-17.832031-13.601562-4.617187-.230469-9.902343-.277344-15.1875-.277344-5.28125 0-13.867187 1.980469-21.132812 9.917969-7.261719 7.933594-27.730469 27.101563-27.730469 66.105469s28.394531 76.683594 32.355469 81.972656c3.960937 5.289062 55.878906 85.328125 135.367187 119.648438 18.90625 8.171874 33.664063 13.042968 45.175782 16.695312 18.984374 6.03125 36.253906 5.179688 49.910156 3.140625 15.226562-2.277344 46.878906-19.171875 53.488281-37.679687 6.601563-18.511719 6.601563-34.375 4.617187-37.683594-1.976562-3.304688-7.261718-5.285156-15.183593-9.253906zm0 0"/>
  </symbol>

  <symbol id="instagram" viewBox="-7.5 -7.5 39 39"> 
    <path d="m1.5 1.633c-1.886 1.959-1.5 4.04-1.5 10.362 0 5.25-.916 10.513 3.878 11.752 1.497.385 14.761.385 16.256-.002 1.996-.515 3.62-2.134 3.842-4.957.031-.394.031-13.185-.001-13.587-.236-3.007-2.087-4.74-4.526-5.091-.559-.081-.671-.105-3.539-.11-10.173.005-12.403-.448-14.41 1.633z"/>
    <path d="m11.998 3.139c-3.631 0-7.079-.323-8.396 3.057-.544 1.396-.465 3.209-.465 5.805 0 2.278-.073 4.419.465 5.804 1.314 3.382 4.79 3.058 8.394 3.058 3.477 0 7.062.362 8.395-3.058.545-1.41.465-3.196.465-5.804 0-3.462.191-5.697-1.488-7.375-1.7-1.7-3.999-1.487-7.374-1.487zm-.794 1.597c7.574-.012 8.538-.854 8.006 10.843-.189 4.137-3.339 3.683-7.211 3.683-7.06 0-7.263-.202-7.263-7.265 0-7.145.56-7.257 6.468-7.263zm5.524 1.471c-.587 0-1.063.476-1.063 1.063s.476 1.063 1.063 1.063 1.063-.476 1.063-1.063-.476-1.063-1.063-1.063zm-4.73 1.243c-2.513 0-4.55 2.038-4.55 4.551s2.037 4.55 4.55 4.55 4.549-2.037 4.549-4.55-2.036-4.551-4.549-4.551zm0 1.597c3.905 0 3.91 5.908 0 5.908-3.904 0-3.91-5.908 0-5.908z"
          fill="#fff" />
  </symbol>
</svg>
