<svg xmlns="http://www.w3.org/2000/svg">
  <symbol id="whatsapp" viewBox="-180 -180 1000 1000">
    <path d="m544.386719 93.007812c-59.875-59.945312-139.503907-92.9726558-224.335938-93.007812-174.804687 0-317.070312 142.261719-317.140625 317.113281-.023437 55.894531 14.578125 110.457031 42.332032 158.550781
          l-44.992188 164.335938 168.121094-44.101562c46.324218 25.269531 98.476562 38.585937 151.550781 38.601562h.132813
          c174.785156 0 317.066406-142.273438 317.132812-317.132812.035156-84.742188-32.921875-164.417969-92.800781-224.359376z
          m-224.335938 487.933594h-.109375c-47.296875-.019531-93.683594-12.730468-134.160156-36.742187l-9.621094-5.714844-99.765625 26.171875 26.628907-97.269531-6.269532-9.972657
          c-26.386718-41.96875-40.320312-90.476562-40.296875-140.28125.054688-145.332031 118.304688-263.570312 263.699219-263.570312 70.40625.023438 136.589844 27.476562 186.355469 77.300781
          s77.15625 116.050781 77.132812 186.484375c-.0625 145.34375-118.304687 263.59375-263.59375 263.59375zm144.585938-197.417968
          c-7.921875-3.96875-46.882813-23.132813-54.148438-25.78125-7.257812-2.644532-12.546875-3.960938-17.824219 3.96875-5.285156 7.929687-20.46875 25.78125-25.09375 31.066406-4.625 5.289062-9.242187 5.953125-17.167968 1.984375-7.925782-3.964844-33.457032-12.335938-63.726563-39.332031-23.554687-21.011719-39.457031-46.960938-44.082031-54.890626-4.617188-7.9375-.039062-11.8125 3.476562-16.171874 8.578126-10.652344 17.167969-21.820313 19.808594-27.105469 2.644532-5.289063 1.320313-9.917969-.664062-13.882813-1.976563-3.964844-17.824219-42.96875-24.425782-58.839844-6.4375-15.445312-12.964843-13.359374-17.832031-13.601562-4.617187-.230469-9.902343-.277344-15.1875-.277344-5.28125 0-13.867187 1.980469-21.132812 9.917969-7.261719 7.933594-27.730469 27.101563-27.730469 66.105469
          s28.394531 76.683594 32.355469 81.972656c3.960937 5.289062 55.878906 85.328125 135.367187 119.648438 18.90625 8.171874 33.664063 13.042968 45.175782 16.695312 18.984374 6.03125 36.253906 5.179688 49.910156 3.140625 15.226562-2.277344 46.878906-19.171875 53.488281-37.679687 6.601563-18.511719 6.601563-34.375 4.617187-37.683594-1.976562-3.304688-7.261718-5.285156-15.183593-9.253906zm0 0"/>
  </symbol>


  <symbol id="instagram" viewBox="-7.5 -7.5 39 39"> 
    <path d="m1.5 1.633c-1.886 1.959-1.5 4.04-1.5 10.362 0 5.25-.916 10.513 3.878 11.752 1.497.385 14.761.385 16.256-.002 1.996-.515 3.62-2.134 3.842-4.957.031-.394.031-13.185-.001-13.587-.236-3.007-2.087-4.74-4.526-5.091-.559-.081-.671-.105-3.539-.11-10.173.005-12.403-.448-14.41 1.633z"/>
    <path d="m11.998 3.139c-3.631 0-7.079-.323-8.396 3.057-.544 1.396-.465 3.209-.465 5.805 0 2.278-.073 4.419.465 5.804 1.314 3.382 4.79 3.058 8.394 3.058 3.477 0 7.062.362 8.395-3.058.545-1.41.465-3.196.465-5.804 0-3.462.191-5.697-1.488-7.375-1.7-1.7-3.999-1.487-7.374-1.487z
          m-.794 1.597c7.574-.012 8.538-.854 8.006 10.843-.189 4.137-3.339 3.683-7.211 3.683-7.06 0-7.263-.202-7.263-7.265 0-7.145.56-7.257 6.468-7.263z
          m5.524 1.471c-.587 0-1.063.476-1.063 1.063s.476 1.063 1.063 1.063 1.063-.476 1.063-1.063-.476-1.063-1.063-1.063z
          m-4.73 1.243c-2.513 0-4.55 2.038-4.55 4.551s2.037 4.55 4.55 4.55 4.549-2.037 4.549-4.55-2.036-4.551-4.549-4.551z
          m0 1.597c3.905 0 3.91 5.908 0 5.908-3.904 0-3.91-5.908 0-5.908z"
          fill="#fff" />
  </symbol>


  <symbol id="logo" viewBox="0 0 234.549 195.671">
    <line x1="158.121" y1="159.986" x2="233.549" y2="159.986" 
          fill="none" stroke="#eef1f1" stroke-width="2px"/>
    <text transform="translate(148.833 153.929)" font-size="40px" fill="#eef1f1" font-family="PFEncoreSansPro-Light, PF Encore Sans Pro" font-weight="300">Staff</text>
    <path d="M52.2,114.886l45.1-26,45.1,26v51.9l-45.1,26-45.1-26Z" style="fill:#fc635e;stroke: #fe8682;stroke-width: 5px;"/>
    <text transform="matrix(0.891, 0.334, -0.351, 0.936, 74.247, 153.369)" font-size="65px" fill="#1e1e1e" stroke="#1e1e1e" stroke-width="2px" font-family="TrueLies, True Lies">S</text>
    <line x1="100.5" y1="73.186" x2="226.527" y2="73.186"  fill="none" stroke="#eef1f1" stroke-linecap="round" stroke-width="2px"/>
    <text transform="translate(99.095 67.632)" font-size="40px" fill="#eef1f1" font-family="PFEncoreSansPro-Light, PF Encore Sans Pro" font-weight="300">Elektrik</text>
    <path d="M2.5,28.886l45.1-26,45.1,26v51.9l-45.1,26-45.1-26Z" fill="#fc635e" stroke="#fe8682" stroke-width="5px"/>
    <text transform="translate(28.321 71.234) scale(0.9 1)" font-size="50px" fill="#1e1e1e" stroke="#1e1e1e" font-family="TrueLies, True Lies">E</text>
  </symbol>

  <symbol id="cart1" viewBox="0 0 95.186 109.661">
    <path d="M2.5,28.859,47.593,2.885,92.686,28.859V80.806l-45.093,25.97L2.5,80.806Z"
          fill="#fc635e" stroke="#fe8682" stroke-width="5px" fill-rule="evenodd"/>
    
      <path d="M73.13,28.858a.874.874,0,0,0-1.237,0L68.652,32.1H48.3L22.7,57.9a3.087,3.087,0,0,0,0,4.363L40.6,80.158
            a3.09,3.09,0,0,0,4.372-.008L69.888,54.557V33.335l3.242-3.241A.875.875,0,0,0,73.13,28.858ZM68.14,53.847,43.724,78.922
            a1.338,1.338,0,0,1-1.89,0L23.94,61.028a1.338,1.338,0,0,1,0-1.893L49.024,33.848H66.9l-4.225,4.225a4.387,4.387,0,1,0,1.236,1.237
            l4.226-4.226Zm-5.246-12.13a2.623,2.623,0,1,1-2.623-2.623,2.583,2.583,0,0,1,1.123.263L59.653,41.1a.874.874,0,1,0,1.236,1.237
            l1.742-1.742A2.588,2.588,0,0,1,62.894,41.717Z"
            fill="#fff" stroke="#fff" stroke-miterlimit="10" />
    <g fill="#fff">      
      <path d="M58.3,55.952l-9.273,9.274a.874.874,0,1,0,1.236,1.236l9.273-9.274A.874.874,0,0,0,58.3,55.952Z"/>
      <path d="M61.39,52.856a.912.912,0,0,0-.254.62.867.867,0,0,0,.875.875.848.848,0,0,0,.611-.254.862.862,0,0,0,.263-.621.881.881,0,0,0-.263-.62A.9.9,0,0,0,61.39,52.856Z"/>
      <path d="M53.973,45.441a.874.874,0,1,0-1.236-1.236l-9.274,9.274A.874.874,0,1,0,44.7,54.715Z"/>
      <path d="M50.882,55.952a.874.874,0,0,0,1.236,0L58.3,49.769a.874.874,0,1,0-1.236-1.236l-6.183,6.182A.874.874,0,0,0,50.882,55.952Z"/>
      <path d="M45.936,59.661,44.7,60.9a.874.874,0,1,0,1.236,1.236L47.172,60.9a.874.874,0,1,0-1.236-1.236Z"/>
      <path d="M36.662,53.734a.868.868,0,0,0,.618-.256l9.273-9.273a.874.874,0,0,0-1.236-1.236l-9.273,9.273a.874.874,0,0,0,.618,1.492Z"/>
      <path d="M49.027,41.367a.882.882,0,0,0,.621-.254.9.9,0,0,0,.253-.621.884.884,0,0,0-.262-.62.875.875,0,0,0-1.487.62.919.919,0,0,0,.254.621A.88.88,0,0,0,49.027,41.367Z"/>
      <path d="M40.992,55.951a.863.863,0,0,0-.254.621.829.829,0,0,0,.254.611.856.856,0,0,0,.62.263.878.878,0,0,0,.612-.254.863.863,0,0,0,0-1.241A.9.9,0,0,0,40.992,55.951Z"/>
      <path d="M49.648,58.424A.882.882,0,0,0,49.9,57.8a.875.875,0,1,0-1.749,0,.9.9,0,0,0,.254.621.886.886,0,0,0,1.242,0Z"/>
      <path d="M42.917,70.243a4.354,4.354,0,0,0,.712-2.773,3.01,3.01,0,0,0-1.119-2.1,3.2,3.2,0,0,0-2.394-.683l-2.45.306L34.3,61.63
            a2.618,2.618,0,0,1,2.978.5A.874.874,0,1,0,38.517,60.9a4.379,4.379,0,0,0-5.5-.555l-.681-.682A.874.874,0,1,0,31.1,60.9l.683.683
            a4.357,4.357,0,0,0-.711,2.773,3.007,3.007,0,0,0,1.118,2.1,3.2,3.2,0,0,0,2.395.685l2.45-.306,3.354,3.354
            a2.69,2.69,0,0,1-2.97-.5.874.874,0,1,0-1.236,1.236,4.369,4.369,0,0,0,5.5.556l.544.544a.874.874,0,0,0,1.237-1.236ZM34.366,65.4
            A1.431,1.431,0,0,1,33.29,65.1a1.279,1.279,0,0,1-.479-.888,2.629,2.629,0,0,1,.258-1.34l2.4,2.4Zm5.966,1.017
            a1.418,1.418,0,0,1,1.075.307,1.275,1.275,0,0,1,.479.888,2.6,2.6,0,0,1-.259,1.34l-2.4-2.4Z"/>
    </g>
  </symbol>


  <symbol id="cart2" viewBox="0 0 95.186 109.661">
    <path d="M2.5,29.253,47.6,3.279,92.69,29.253V81.2L47.6,107.17,2.5,81.2Z" 
          fill="#fc635e" stroke="#fe8682" stroke-width="5px" fill-rule="evenodd"/>
    <g fill="#fcfcfc">
      <path d="M29.5,64.66a4.33,4.33,0,0,0,1.169.814,26.274,26.274,0,0,0,1.836,8.407,8.832,8.832,0,0,1,.692,3.386v3.065
            a2.6,2.6,0,0,0,2.6,2.6h10.39a2.6,2.6,0,0,0,2.6-2.6,6.516,6.516,0,0,1,1.437-4.078l5.654-7.048c.095-.1.182-.217.268-.321
            s.173-.181.251-.285.165-.234.243-.355l.216-.312c.078-.13.13-.26.2-.381s.121-.225.173-.338.113-.277.165-.415l.13-.338
            a2.33,2.33,0,0,1,.112-.45c.035-.156.061-.217.087-.329a2.605,2.605,0,0,1,.061-.476c.06-.156,0-.217.051-.329a1.9,1.9,0,0,0,0-.546
            v-.268a6.334,6.334,0,0,0-.077-.814h0l-.07-.416-.866-5.61a6.892,6.892,0,0,0-.519-1.732h0a.594.594,0,0,0-.052-.1
            A6.928,6.928,0,0,0,52.4,51.854l-2.7-.961,3-2.944,3.013-3.117a.87.87,0,0,1,.779-.225,8.664,8.664,0,0,0,10.4-9.429,1.732,1.732,0,0,0-2.961-1.013
            l-2.407,2.459a.866.866,0,0,1-1.225,0l-.005,0-2.424-2.415a.9.9,0,0,1,.009-1.256l2.415-2.459
            a1.717,1.717,0,0,0-1.021-2.926,8.8,8.8,0,0,0-3.464.329,8.657,8.657,0,0,0-5.922,10.069.866.866,0,0,1-.234.806l-5.039,4.935
            a3.463,3.463,0,0,0-6.139,1.342,3.463,3.463,0,0,0-4.407,3.333,3.348,3.348,0,0,0,.217,1.2h-.208A3.463,3.463,0,0,0,31.546,54.6
            a3.462,3.462,0,0,0-2.3,4.234,4.328,4.328,0,0,0,.259,5.8Zm.719-4.182.156.113a2.146,2.146,0,0,0,.268.216,3.591,3.591,0,0,0,.537.3
            L34.645,62.6a3.092,3.092,0,0,0,.477.165l-.7.693a2.7,2.7,0,0,1-.355.285l-.121.078-.286.147-.155.07-.33.095h-.389
            a2.793,2.793,0,0,1-.987-.121h0a2.53,2.53,0,0,1-1.013-.615,2.6,2.6,0,0,1-.511-2.961ZM53.5,54.53A5.189,5.189,0,0,1,55.07,57.5l.979,6.06
            a4.887,4.887,0,0,1,.06.615,5.253,5.253,0,0,1-1.5,3.879l-.061.061-5.68,7.022a8.219,8.219,0,0,0-1.818,5.195.866.866,0,0,1-.866.866H35.8
            a.866.866,0,0,1-.866-.866V77.267a10.465,10.465,0,0,0-.866-4.052,24.421,24.421,0,0,1-1.679-7.3h.147
            a3.874,3.874,0,0,0,.537-.052,1.946,1.946,0,0,0,.216,0,3.745,3.745,0,0,0,.606-.165l.217-.061a4.864,4.864,0,0,0,.632-.32l.138-.069
            a4.49,4.49,0,0,0,.684-.546l4.858-4.77a3.248,3.248,0,0,0,1.471-.866l.052-.044a4.007,4.007,0,0,0,.355-.415,3.292,3.292,0,0,0,.572-1.3,3.517,3.517,0,0,0,.8-.078
            A5.916,5.916,0,0,0,45.893,58.6l2.06.788a1.306,1.306,0,0,1,.866,1.074,1.341,1.341,0,0,1-.866,1.4c-4.641,1.732-7.264,4.711-7.792,8.823
            a.865.865,0,0,0,.718.987h.113a.866.866,0,0,0,.866-.753c.467-3.463,2.658-5.905,6.7-7.42a3.091,3.091,0,0,0,1.957-3.238
            A3.03,3.03,0,0,0,48.6,57.82l-2.087-.866a4.324,4.324,0,0,1-1.922-1.342,2.893,2.893,0,0,1-.3-.424c-.051-.078-.1-.156-.147-.234
            a3.738,3.738,0,0,1-.242-.5c-.043-.113-.087-.225-.121-.346s-.061-.217-.087-.321-.043-.26-.061-.389
            a2.383,2.383,0,0,1,0-.338.452.452,0,0,1,0-.1,2.91,2.91,0,0,1,0-.476,1.249,1.249,0,0,1,0-.173.807.807,0,0,1,0-.139,4.328,4.328,0,0,1,.165-.71.865.865,0,0,1,1.082-.545
            l6.858,2.58A5.31,5.31,0,0,1,53.5,54.53ZM50.837,39.966a2.6,2.6,0,0,0,.7-2.363,6.744,6.744,0,0,1,.069-3.161,6.869,6.869,0,0,1,4.658-4.883,6.722,6.722,0,0,1,2.8-.26
            l-2.416,2.459a2.6,2.6,0,0,0-.006,3.674l.006.006L59.1,37.906a2.665,2.665,0,0,0,3.679,0l2.459-2.5h0
            a7.013,7.013,0,0,1-.251,2.771,6.84,6.84,0,0,1-4.944,4.7,6.732,6.732,0,0,1-3.186.069,2.6,2.6,0,0,0-2.372.7l-6.148,6.061v-.052
            a3.117,3.117,0,0,0-.3-.649h0l-2.45-3.819ZM40.931,44.3a1.732,1.732,0,0,1,2.39.536h0l.424.667h0l2.6,4.1-.866-.32
            a2.547,2.547,0,0,0-1.983.13,2.2,2.2,0,0,0-.242.147l-3.074-3.42a1.732,1.732,0,0,1,.753-1.827Zm-4.623,2.848
            a1.732,1.732,0,0,1,2.449-.019l.018.019,3.4,3.784c-.044.138-.078.277-.122.424a6.064,6.064,0,0,0,.364,4.009l-4.719-4.407-1.385-1.385
            a1.731,1.731,0,0,1,0-2.442ZM33.2,52.019a1.733,1.733,0,0,1,2.416-.39l.866.658,4.719,4.39h0a1.73,1.73,0,0,1-.321.866h0
            a1.5,1.5,0,0,1-.19.216h0a1.841,1.841,0,0,1-1.8.347L34.2,54.816h0l-.65-.477A1.732,1.732,0,0,1,33.2,52.019Zm-2.242,5.2
            a1.757,1.757,0,0,1,2.286-.9h.069l4.381,3.074a1.734,1.734,0,0,1-.13.667,1.678,1.678,0,0,1-.9.978,1.729,1.729,0,0,1-1.325,0l-3.463-1.5
            h0a1.5,1.5,0,0,1-.286-.164h0a1.876,1.876,0,0,1-.519-.65h0l-.052-.095a1.73,1.73,0,0,1-.044-1.385Z" />  
      <path d="M38.871,37.715a.441.441,0,0,0,.2.58l1.732.866a.444.444,0,0,0,.19.043.432.432,0,0,0,.19-.822l-1.731-.866A.441.441,0,0,0,38.871,37.715Z" />
      <path d="M41.858,36.607a.408.408,0,0,0,.3-.13.415.415,0,0,0,.018-.587l-.018-.019-1.732-1.732a.429.429,0,0,0-.606.606l1.732,1.732A.408.408,0,0,0,41.858,36.607Z" />
      <path d="M44.888,36.174v-.866a.433.433,0,1,0-.866,0v.866a.433.433,0,1,0,.866,0Z"  />
    </g>
  </symbol>


  <symbol id="cart3" viewBox="0 0 95.186 109.661">
    <path class="a" d="M2.5,28.859,47.593,2.885,92.686,28.859V80.806l-45.093,25.97L2.5,80.806Z"
      fill="#fc635e" stroke="#fe8682" stroke-width="5px" fill-rule="evenodd"/>
    <g fill="#fff" stroke="#fff" stroke-miterlimit="10">
      <path d="M62.5,63.99l-5.457,5.168L54.8,66.829a1.113,1.113,0,1,0-1.6,1.553L56.2,71.509
            a1.123,1.123,0,0,0,.8.333,1.188,1.188,0,0,0,.776-.311l6.255-5.944a1.117,1.117,0,0,0,.044-1.574A1.1,1.1,0,0,0,62.5,63.99Z"/>
      <path d="M72.5,65.476l-.155-.931H69.991a10.534,10.534,0,0,0-1.065-2.528c.333-.333.644-.666.976-.976
            l.688-.666-.555-.776A14.931,14.931,0,0,0,66.8,56.361l-.776-.555-.665.688-.621.621-.355.355
            a11.632,11.632,0,0,0-2.551-1.043v-2.35l-.931-.156a13.807,13.807,0,0,0-4.481,0l-.975.178.044,1v1.33
            a12.09,12.09,0,0,0-2.551,1.043l-.377-.377c-.2-.2-.421-.4-.621-.621l-.665-.688-.776.555
            a13.21,13.21,0,0,0-3.238,3.238l-.555.776.688.666c.332.332.665.643.976.975A13.27,13.27,0,0,0,47.3,64.523
            H44.951l-.155.931a13.23,13.23,0,0,0-.178,2.285,15.829,15.829,0,0,0,.178,2.284l.133.843,1,.089H47.3
            a11.845,11.845,0,0,0,1.065,2.572l-.444.444-.4.4-.178.178-.621.665.533.732a13.735,13.735,0,0,0,3.216,3.194
            l.709.51.666-.577.111-.111c.243-.266.487-.51.754-.754l.2-.2a12.139,12.139,0,0,0,2.551,1.042v1.375
            l.066,1,.887.133a14.19,14.19,0,0,0,4.481,0l.953-.2-.022-.976V79.05a11.678,11.678,0,0,0,2.551-1.042
            l.177.177.754.754.754.71.732-.532a14.19,14.19,0,0,0,3.216-3.194l.532-.754-.621-.666-.177-.177-.4-.4-.444-.444
            a11.263,11.263,0,0,0,1.065-2.573h1.286l1.087-.088.133-.843a13.054,13.054,0,0,0,.177-2.285A10.942,10.942,0,0,0,72.5,65.476Z
            m-2.085,3.261H69.193l-1.021.111-.155.8a9.239,9.239,0,0,1-1.442,3.438l-.421.643.444.621a2.612,2.612,0,0,0,.244.288
            l.8.8a13.32,13.32,0,0,1-1.375,1.375l-.111-.111-.688-.688a1.694,1.694,0,0,0-.31-.244l-.621-.4-.621.4
            a9.567,9.567,0,0,1-3.438,1.42l-.687.133-.178.688a1.751,1.751,0,0,0-.044.488v1.086a13.177,13.177,0,0,1-1.885,0V78.5
            a3.2,3.2,0,0,0-.045-.488l-.177-.688-.688-.133a9.5,9.5,0,0,1-3.437-1.42l-.621-.4-.621.4a1.583,1.583,0,0,0-.289.244
            c-.222.244-.465.466-.687.71l-.111.111a11.447,11.447,0,0,1-1.375-1.375l.8-.8a1.389,1.389,0,0,0,.244-.289l.422-.621-.422-.621
            a9.367,9.367,0,0,1-1.441-3.438l-.156-.8-.953-.111H46.836c-.022-.333-.044-.643-.044-.976s.022-.665.044-1c.355,0,.71,0,1.043.022
            a4.353,4.353,0,0,0,.532-.044l.665-.177.133-.688a9.138,9.138,0,0,1,1.42-3.393l.4-.6-.377-.621a1.888,1.888,0,0,0-.377-.444
            l-.288-.288-.4-.4a10.493,10.493,0,0,1,1.4-1.4c.244.244.51.488.754.755a2.1,2.1,0,0,0,.532.4l.555.244.51-.333
            a9.577,9.577,0,0,1,3.415-1.4l.688-.133.177-.666a1.633,1.633,0,0,0,.045-.465V56.073a13.177,13.177,0,0,1,1.885,0v1.109
            a3.035,3.035,0,0,0,.044.465l.178.666.687.133a9.589,9.589,0,0,1,3.416,1.4l.51.333.554-.244a1.815,1.815,0,0,0,.532-.377
            c.244-.244.488-.51.755-.754a10.419,10.419,0,0,1,1.4,1.4l-.444.443-.244.244a3.439,3.439,0,0,0-.377.444l-.4.621.4.6
            a9.518,9.518,0,0,1,1.42,3.393l.133.688.687.177a1.363,1.363,0,0,0,.533.045c.354-.023.709-.023,1.042-.023.022.333.044.666.044,1
            A4.067,4.067,0,0,1,70.412,68.737Z"
            stroke-width="0.5px"/>
      <path d="M33.263,40.614a6.377,6.377,0,1,0-6.388-6.388A6.389,6.389,0,0,0,33.263,40.614Zm0-10.535a4.148,4.148,0,1,1-4.148,4.147A4.155,4.155,0,0,1,33.263,30.079Z"/>
      <path d="M40.937,49.2a1.12,1.12,0,0,0-1.2,1.043l-.976,14.283a.978.978,0,0,1-.022.111l-.909,13.884a1.115,1.115,0,0,1-1.109,1.042
            h-6.9a1.1,1.1,0,0,1-1.109-1.042l-.909-13.884a1.114,1.114,0,0,0-.8-1c-1.286-.4-1.286-.4-1.4-1.819L24.79,47.09v-.111
            c1.22-.355,3.261-1.02,4.281-1.33l3.438,3.215a1.125,1.125,0,0,0,1.53,0l3.482-3.26,10.2,2.307a.839.839,0,0,0,.466,0l9.626-1.974
            a1.109,1.109,0,1,0-.444-2.174l-9.381,1.93L37.432,43.3a1.156,1.156,0,0,0-1.02.266l-3.149,2.95-3.15-2.95A1.067,1.067,0,0,0,29,43.32
            s-3.26,1.042-4.923,1.53a2.07,2.07,0,0,0-1.553,2.085V47.2l.821,14.527.022.244c.155,2.218.532,2.928,2.24,3.549l.865,13.13
            A3.384,3.384,0,0,0,29.825,81.8h6.9a3.368,3.368,0,0,0,3.349-3.149l.909-13.773A.2.2,0,0,1,41,64.767l1-14.394
            A1.147,1.147,0,0,0,40.937,49.2Z"/>
    </g>
  </symbol>


  <symbol id="cart4" viewBox="0 0 95.186 109.661">
    <path class="a" d="M2.5,28.859,47.593,2.885,92.686,28.859V80.806l-45.093,25.97L2.5,80.806Z"
          fill="#fc635e" stroke="#fe8682" stroke-width="5px" fill-rule="evenodd"/>
    <g fill="#fff" stroke="#fff">
      <path d="M82.223,55.164l-4.61-4.61-2.41-6.97a1.206,1.206,0,0,0-1.06-.82H58.453v-3.62a1.232,1.232,0,0,0-1.2-1.21
            H13.813a1.21,1.21,0,1,0,0,2.42h42.23v24.13h-14.6a6.037,6.037,0,0,0-11.83,0h-8.56a1.205,1.205,0,1,0,0,2.41h8.56
            a6.036,6.036,0,0,0,11.83,0H63.4a6.031,6.031,0,0,0,11.82,0h6.16a1.2,1.2,0,0,0,1.2-1.2v-9.66A1.243,1.243,0,0,0,82.223,55.164Z
            m-46.69,14.15a3.62,3.62,0,1,1,3.62-3.62A3.625,3.625,0,0,1,35.533,69.314Zm33.78,0a3.62,3.62,0,1,1,3.62-3.62
            A3.625,3.625,0,0,1,69.313,69.314Zm10.86-4.83h-4.95a6.031,6.031,0,0,0-11.82,0h-4.95V45.174h14.82l2.15,6.42a.932.932,0,0,0,.29.46
            l4.46,4.49Z"/>
      <path d="M36.737,56.04a1.206,1.206,0,0,0-1.206-1.207H18.638a1.207,1.207,0,0,0,0,2.413H35.531A1.206,1.206,0,0,0,36.737,56.04Z"/>
      <path d="M39.154,48.8a1.208,1.208,0,0,1-1.21,1.21H25.874a1.205,1.205,0,0,1,0-2.41h12.07A1.206,1.206,0,0,1,39.154,48.8Z"/>
      <path d="M19.844,48.8a1.208,1.208,0,0,1-1.21,1.21h-2.41a1.205,1.205,0,1,1,0-2.41h2.41A1.206,1.206,0,0,1,19.844,48.8Z"/>
    </g>
  </symbol>


  <symbol id="garantee" viewBox="0 29.212 512 453.577">
    <path d="M266.933,34.118,294.07,64.61l36.741-17.787a14.636,14.636,0,0,1,20.2,8.368l13.4,38.557,40.75-2.373a14.634,14.634,0,0,1,15.461,15.461l-2.372,40.75,38.556,13.4a14.637,14.637,0,0,1,8.368,20.2l-17.787,36.741,30.492,27.137a14.634,14.634,0,0,1,0,21.865L447.391,294.07l17.787,36.741a14.635,14.635,0,0,1-8.368,20.2l-38.556,13.4,2.372,40.75a14.634,14.634,0,0,1-15.461,15.461l-40.75-2.372-13.4,38.556a14.637,14.637,0,0,1-20.2,8.368L294.07,447.39l-27.137,30.492a14.634,14.634,0,0,1-21.865,0L217.931,447.39,181.19,465.177a14.636,14.636,0,0,1-20.2-8.368l-13.4-38.556-40.75,2.372a14.634,14.634,0,0,1-15.461-15.461l2.373-40.75-38.557-13.4a14.636,14.636,0,0,1-8.368-20.2L64.61,294.07,34.118,266.933a14.634,14.634,0,0,1,0-21.865L64.61,217.931,46.823,181.19a14.636,14.636,0,0,1,8.368-20.2l38.557-13.4-2.373-40.75a14.634,14.634,0,0,1,15.461-15.461l40.75,2.373,13.4-38.557a14.637,14.637,0,0,1,20.2-8.368L217.931,64.61l27.137-30.492a14.634,14.634,0,0,1,21.865,0Z"
          style="fill: #ffcf5d" />
    <path d="M477.882,245.067,447.39,217.93l17.787-36.741a14.636,14.636,0,0,0-8.367-20.2l-38.557-13.4,2.373-40.75a14.635,14.635,0,0,0-15.461-15.461l-40.75,2.372-13.4-38.556a14.636,14.636,0,0,0-20.2-8.367l-13.206,6.393L335.221,103.9A30.9,30.9,0,0,0,366.21,124.6l22.5-1.309-1.31,22.5a30.9,30.9,0,0,0,20.7,30.989l21.289,7.4-9.821,20.285a30.905,30.905,0,0,0,7.271,36.553L443.678,256l-16.835,14.983a30.905,30.905,0,0,0-7.271,36.553l9.821,20.285-21.289,7.4a30.906,30.906,0,0,0-20.7,30.989l1.31,22.5-22.5-1.309a30.917,30.917,0,0,0-30.989,20.706l-7.4,21.287-20.285-9.82a30.906,30.906,0,0,0-36.554,7.271L256,443.679l-14.983-16.836a30.906,30.906,0,0,0-36.554-7.271l-20.285,9.82-7.4-21.287A30.921,30.921,0,0,0,145.789,387.4l-53.562,3.118-.853,14.646a14.636,14.636,0,0,0,15.461,15.462l40.75-2.372,13.4,38.556a14.636,14.636,0,0,0,20.2,8.368l36.741-17.786,27.137,30.492a14.634,14.634,0,0,0,21.865,0l27.137-30.492,36.741,17.786a14.636,14.636,0,0,0,20.2-8.368l13.4-38.556,40.75,2.372a14.635,14.635,0,0,0,15.461-15.462l-2.373-40.75,38.557-13.4a14.636,14.636,0,0,0,8.367-20.2l-17.787-36.741,30.492-27.137A14.633,14.633,0,0,0,477.882,245.067Z"
          style="fill: #ffb545" />
    <circle cx="256" cy="256" r="147.039" style="fill: #ffb545" />
    <path d="M193.819,225.61a7.724,7.724,0,0,1-7.726,7.725h-20.6a7.726,7.726,0,0,1,0-15.451h2.576v-21.04a7.728,7.728,0,0,1-8.039-12.75l10.3-10.3a7.725,7.725,0,0,1,13.187,5.462v38.627h2.574a7.725,7.725,0,0,1,7.727,7.726Z"
          style="fill: #3f5f94" />
    <path d="M248.992,194.708v15.451a23.176,23.176,0,1,1-46.352,0V194.708a23.176,23.176,0,1,1,46.352,0Zm-15.451,0a7.726,7.726,0,0,0-15.451,0v15.451a7.726,7.726,0,0,0,15.451,0Z"
          style="fill: #3f5f94" />
    <path d="M304.187,194.708v15.451a23.176,23.176,0,1,1-46.352,0V194.708a23.176,23.176,0,1,1,46.352,0Zm-15.451,0a7.726,7.726,0,0,0-15.451,0v15.451a7.726,7.726,0,0,0,15.451,0Z"
          style="fill: #3f5f94" />
    <path d="M353.258,183,327.51,229.348a7.726,7.726,0,1,1-13.508-7.5l25.75-46.349a7.725,7.725,0,1,1,13.506,7.5Zm-40.228-3.753a7.726,7.726,0,1,1,7.725,7.726A7.723,7.723,0,0,1,313.03,179.247ZM338.781,225.6a7.726,7.726,0,1,1,7.727,7.726A7.725,7.725,0,0,1,338.781,225.6Z"
          style="fill: #3f5f94" />
    <path d="M496.547,348.716H15.453A15.453,15.453,0,0,1,0,333.264V271.453A15.454,15.454,0,0,1,15.453,256H496.547A15.454,15.454,0,0,1,512,271.453v61.811A15.453,15.453,0,0,1,496.547,348.716Z"
          style="fill: #3f5f94" />
    <text transform="translate(40.682 328.166)"
          style="font-size: 70px;fill: #ffcf5d;stroke: #ffcf5d;stroke-miterlimit: 10;font-family: ComicSansMS-Bold, Comic Sans MS;font-weight: 700;letter-spacing: 0.11000279017857142em">ГАРАНТИЯ</text>
  </symbol>


  <symbol id="deadlines" viewBox="0 0 58 58">
    <path d="m52 14v12.59l-26.24 24.41h-21.76c-2.209139 0-4-1.790861-4-4v-33z" fill="#ecf0f1" />
    <g fill="#95a5a5">
      <rect height="5" rx="1" width="6" x="4" y="20" />
      <rect height="5" rx="1" width="6" x="15" y="20" />
      <rect height="5" rx="1" width="6" x="26" y="20" />
      <rect height="5" rx="1" width="6" x="15" y="30" />
      <rect height="5" rx="1" width="6" x="15" y="40" />
      <rect height="5" rx="1" width="6" x="4" y="30" />
      <rect height="5" rx="1" width="6" x="4" y="40" />
    </g>
    <circle cx="40" cy="40" fill="#3b97d3" r="18" />
    <circle cx="40" cy="40" fill="#2980ba" r="16" />
    <path d="m54 40c-.0102094 6.2302834-4.1428381 11.7015447-10.1328592 13.4150743-5.990021 1.7135295-12.3909251-.7444671-15.6944804-6.0268016-3.3035552-5.2823346-2.7119976-12.1133945 1.4504498-16.7491865
          s10.8906096-5.9568348 16.4968898-3.2390862c4.8230375 2.3442004 7.8832595 7.2374487 7.88 12.6z"
          fill="#2fa8cc"/>
    <path d="m46 33c-.0022237 7.3423284-5.6764256 13.4355483-13 13.96-.6655732.0539997-1.3344268.0539997-2 0-1.2033577-.0759624-2.3908503-.3148065-3.53-.71-.0271673-.0411568-.0505942-.0846639-.07-.13-3.3732226-6.9591889-.4737224-15.3355229 6.48-18.72 1.6030693-.7790664 3.3416344-1.2408727 5.12-1.36.6655933-.0535005 1.3344067-.0535005 2 0 1.2033577.0759624 2.3908503.3148065 3.53.71.0271673.0411568.0505942.0846639.07.13.9239508 1.907711 1.4026525 4.0003209 1.4 6.12z"
          fill="#67b9cc" />
    <g fill="#285680">
      <path d="m41 26.04v1.96c0 .5522847-.4477153 1-1 1s-1-.4477153-1-1v-1.96c.33-.03.66-.04 1-.04s.67.01 1 .04z" />
      <path d="m34.5 30.47c-.2288501.1362964-.5028629.1749377-.7604798.1072427-.257617-.0676949-.4772366-.2360498-.6095202-.4672427l-.98-1.7c.5544794-.3733084 1.1323323-.7106676 1.73-1.01l.99 1.71c.2713883.4779792.1061364 1.0853915-.37 1.36z" />
      <path d="m30.47 34.5c-.1761919.3088972-.5043864.499708-.86.5-.1751242.0007919-.3474391-.04401-.5-.13l-1.71-.99c.2993324-.5976677.6366916-1.1755206 1.01-1.73l1.7.98c.2297442.133628.3968418.3532172.4643886.6102702.0675467.257053.0299853.5304211-.1043886.7597298z" />
      <path d="m29 40c0 .5522847-.4477153 1-1 1h-1.96c-.03-.33-.04-.66-.04-1s.01-.67.04-1h1.96c.5522847 0 1 .4477153 1 1z" />
      <path d="m30.11 46.87-1.7.98c-.3733084-.5544794-.7106676-1.1323323-1.01-1.73l1.71-.99c.4804877-.2761424 1.0938576-.1104877 1.37.37s.1104877 1.0938576-.37 1.37z" />
      <path d="m34.87 50.89-.99 1.71c-.5976677-.2993324-1.1755206-.6366916-1.73-1.01l.98-1.7c.2761424-.4804877.8895123-.6461423 1.37-.37.4804877.2761424.6461424.8895123.37 1.37z" />
      <path d="m41 52v1.96c-.33.03-.66.04-1 .04s-.67-.01-1-.04v-1.96c0-.5522847.4477153-1 1-1s1 .4477153 1 1z" />
      <path d="m47.85 51.59c-.5544794.3733084-1.1323323.7106676-1.73 1.01l-.99-1.71c-.2761424-.4804877-.1104877-1.0938576.37-1.37.4804877-.2761423 1.0938576-.1104877 1.37.37z" />
      <path d="m52.6 46.12c-.2993324.5976677-.6366916 1.1755206-1.01 1.73l-1.7-.98c-.4804877-.2761424-.6461423-.8895123-.37-1.37.2761424-.4804877.8895123-.6461424 1.37-.37z" />
      <path d="m54 40c0 .34-.01.67-.04 1h-1.96c-.5522847 0-1-.4477153-1-1s.4477153-1 1-1h1.96c.03.33.04.66.04 1z" />
      <path d="m52.6 33.88-1.71.99c-.1525609.08599-.3248758.1307919-.5.13-.4553929.0031839-.8554212-.3017208-.9730546-.7416699-.1176335-.4399491.0768419-.903812.4730546-1.1283301l1.7-.98c.3733084.5544794.7106676 1.1323323 1.01 1.73z" />
      <path d="m47.85 28.41-.98 1.7c-.1322836.2311929-.3519032.3995478-.6095202.4672427-.2576169.067695-.5316297.0290537-.7604798-.1072427-.4761364-.2746085-.6413883-.8820208-.37-1.36l.99-1.71c.5976677.2993324 1.1755206.6366916 1.73 1.01z" />
    </g>
    <path d="m44 45c-.2651948-.0000566-.5195073-.1054506-.707-.293l-4-4c-.2886867-.2889598-.3726169-.7244471-.212-1.1l3-7
          c.2225705-.4993742.8049312-.7274312 1.3074258-.5119982.5024946.2154329.7388258.7944852.5305742 1.2999982
          l-2.733 6.377 3.521 3.522c.2851942.2860871.3702546.7156659.2156011 1.0888467s-.518644.6166641-.9226011.6171533z"
          fill="#bdc3c7" />
    <path d="m52 7v9h-52v-9c0-2.209139 1.790861-4 4-4h44c2.209139 0 4 1.790861 4 4z" 
          fill="#e64c3c" />
    <path d="m41 3c1.7799916.69615377 2.9644585 2.39704811 3 4.308-.1669773 2.63882398-2.3558984 4.6936142-5 4.6936142s-4.8330227-2.05479022-5-4.6936142c.0355415-1.91095189 1.2200084-3.61184623 3-4.308z"
          fill="#c03a2b" />
    <path d="m15 3c1.7799916.69615377 2.9644585 2.39704811 3 4.308-.0886126 2.67476119-2.3250095 4.773396-5 4.692-2.6749905.081396-4.91138737-2.01723881-5-4.692.03554154-1.91095189 1.22000835-3.61184623 3-4.308z"
          fill="#c03a2b" />
    <g fill="#95a5a5">
      <rect height="8" rx="2" width="4" x="37" />
      <rect height="8" rx="2" width="4" x="11" />
    </g>
  </symbol>


  <symbol id="low_prices" viewBox="0 0 512 512">
    <path d="m421 362c-8.291 0-15 6.709-15 15 0 11.32-5.795 21.387-15 27.567-1.194.802-2.232 1.778-3.545 2.433-25.576 12.788-41.455 38.481-41.455 67.075v22.925c0 8.291 6.709 15 15 15s15-6.709 15-15v-22.925c0-13.066 5.581-25.065 15-33.461 2.946-2.626 6.216-4.949 9.873-6.779 21.68-10.839 35.127-32.606 35.127-56.835 0-8.291-6.709-15-15-15z"
          fill="#d9e5ff" />
    <path d="m391 392c-8.284 0-15-6.716-15-15v-16c0-16.542 13.458-30 30-30s30 13.458 30 30v16c0 8.284-6.716 15-15 15z"
          fill="#fb3" />
    <path d="m196 474.075c0-28.594-15.879-54.287-41.455-67.075-1.313-.656-2.351-1.631-3.545-2.433-9.205-6.18-15-16.247-15-27.567 0-8.291-6.709-15-15-15s-15 6.709-15 15c0 24.229 13.447 45.996 35.127 56.836 3.657 1.827 6.929 4.153 9.873 6.777 9.421 8.395 15 20.394 15 33.463v22.924c0 8.291 6.709 15 15 15s15-6.709 15-15z"
          fill="#d9e5ff" />
    <path d="m121 392c-8.284 0-15-6.716-15-15v-16c0-16.542 13.458-30 30-30s30 13.458 30 30v16c0 8.284-6.716 15-15 15z"
          fill="#e64551" />
    <path d="m136 0c-74.443 0-136 68.295-136 151 0 83.232 59.975 180 136 180s135-96.768 135-180c0-82.705-60.557-151-135-151z"
          fill="#f66" />
    <path d="m271 151c0-82.705-60.557-151-135-151v331c76.025 0 135-96.768 135-180z" fill="#e64551" />
    <circle cx="166" cy="211" fill="#d9e5ff" r="15" />
    <circle cx="106" cy="121" fill="#ecf2ff" r="15" />
    <path d="m174.32 108.52c-6.855-4.57-16.172-2.754-20.801 4.16l-17.519 26.279-42.48 63.721c-4.6 6.899-2.725 16.201 4.16 20.801 6.837 4.557 16.152 2.789 20.801-4.16l17.519-26.28 42.48-63.721c4.6-6.899 2.725-16.201-4.16-20.8z"
          fill="#ecf2ff" />
    <path d="m174.32 108.52c-6.855-4.57-16.172-2.754-20.801 4.16l-17.519 26.279v54.082l42.48-63.721c4.6-6.899 2.725-16.201-4.16-20.8z"
          fill="#d9e5ff" />
    <path d="m406 61c-57.891 0-105 53.833-105 120 0 67.939 46.846 150 105 150s106-82.061 106-150c0-66.167-48.109-120-106-120z"
          fill="#ffd34d" />
    <path d="m512 181c0-66.167-48.109-120-106-120v270c58.154 0 106-82.061 106-150z"
          fill="#fb3" />
    <path d="m151 392c8.284 0 15-6.716 15-15v-16c0-16.542-13.458-30-30-30v61z" 
          fill="#cc2935" />
    <path d="m421 392c8.284 0 15-6.716 15-15v-16c0-16.542-13.458-30-30-30v61z" 
          fill="#ff8b17" />
  </symbol>
  

  <symbol id="handshake" viewBox="0 0 512.002 512.002">
    <path d="M418.258,249.103L405.252,143.45l-24.372,3l0.01-0.017l-47.25-26.591
          c-5.04-2.836-10.824-4.07-16.583-3.538l-74.606,6.9c-9.171,0.848-17.366,6.081-21.993,14.045l-52.584,90.508
          c-3.883,6.683-0.835,15.254,6.396,17.985l2.151,0.812c4.138,1.563,8.391,2.468,12.642,2.822l-6.663,5.803l-13.33,11.614
          l-37.913,32.34c-6.749,5.879-7.45,16.109-1.571,22.858l3.846,4.405c7.55,8.658,20.691,9.557,29.365,2.005l14.49,16.62
          c4.711,5.41,11.613,7.803,18.244,6.987c3.985-0.49,7.873-2.142,11.12-4.982l14.474,16.621c4.728,5.424,11.629,7.801,18.26,6.985
          c3.985-0.491,7.874-2.127,11.122-4.966l7.866,6.798c7.552,8.673,20.708,9.57,29.382,2.018l10.693-9.329l89.896-70.012l0.097-0.089
          l35.468-0.035L418.258,249.103z"
          fill="#F29F5C"/>
    <path d="M379.731,267.833l-0.097,0.089l-89.896,70.012l-10.693,9.329c-8.673,7.552-21.83,6.655-29.382-2.018
          l-7.866-6.798c-3.248,2.839-7.138,4.476-11.122,4.966c-6.631,0.816-13.531-1.561-18.26-6.985l-14.474-16.621
          c-3.248,2.839-7.136,4.491-11.12,4.982c-6.631,0.816-13.533-1.576-18.244-6.987l-14.49-16.62
          c-7.426,6.466-18.118,6.718-25.781,1.227c-3.93,5.926-3.616,13.958,1.283,19.582l3.846,4.405c7.55,8.658,20.691,9.557,29.365,2.005
          l14.49,16.62c4.711,5.41,11.613,7.803,18.244,6.987c3.985-0.49,7.872-2.142,11.12-4.982l14.474,16.622
          c4.728,5.424,11.629,7.801,18.26,6.985c3.985-0.491,7.874-2.127,11.122-4.966l7.866,6.798c7.552,8.673,20.708,9.57,29.382,2.018
          l10.693-9.329l89.896-70.012l0.097-0.089l35.468-0.035l-3.924-31.876L379.731,267.833z"
          fill="#D37D42"/>
    <path d="M396.101,313.533l-48.165-41.53l-13.394-11.54l-9.584-8.254l-41.207-35.52l4.759-40.51
          c1.61-13.701-7.015-26.528-20.311-30.207l-89.825-24.855c-9.504-2.63-19.549,1.78-24.045,10.557l-11.296,22.05l-48.488-3.291
          l-12.42,105.724l-5.398,45.945l47.198,3.139l0.098,0.089l98.602,84.993l10.745,9.27c8.715,7.504,21.866,6.534,29.37-2.181
          l14.38-16.686c3.263,2.821,7.162,4.436,11.15,4.905c6.635,0.78,13.523-1.636,18.221-7.086l14.382-16.701
          c3.263,2.821,7.16,4.452,11.148,4.92c6.635,0.78,13.524-1.651,18.205-7.088l14.397-16.7c8.715,7.504,21.851,6.532,29.353-2.168
          l3.822-4.427C403.64,329.601,402.882,319.375,396.101,313.533z"
          fill="#F9C295"/>
    <g fill="#E59F6A">
      <path d="M396.101,313.533l-14.671-12.65c4.768,6.323,4.67,15.318-0.711,21.564l-4.057,4.699
            c-7.964,9.235-21.908,10.267-31.16,2.301l-15.284,17.728c-4.969,5.771-12.282,8.351-19.326,7.524
            c-4.233-0.497-8.37-2.228-11.834-5.223l-15.268,17.73c-4.987,5.785-12.298,8.349-19.342,7.522
            c-4.233-0.497-8.372-2.212-11.836-5.207l-15.266,17.714c-2.876,3.341-6.539,5.592-10.474,6.752l6.499,5.607
            c8.715,7.504,21.866,6.534,29.37-2.181l14.38-16.686c3.263,2.821,7.162,4.436,11.15,4.905c6.635,0.779,13.523-1.636,18.221-7.086
            l14.382-16.701c3.263,2.821,7.16,4.452,11.148,4.92c6.635,0.78,13.524-1.651,18.205-7.088l14.397-16.7
            c8.715,7.504,21.851,6.532,29.353-2.168l3.822-4.427C403.64,329.601,402.882,319.375,396.101,313.533z"/>
      <path d="M369.5,337.416l-26.392-22.756c-3.135-2.704-7.872-2.354-10.578,0.783
            c-2.705,3.137-2.354,7.873,0.783,10.578l26.345,22.716l4.966-5.76c1.982,1.707,4.199,2.952,6.52,3.791
            C372.857,343.719,372.25,339.787,369.5,337.416z"/>
      <path d="M327.303,365.627c1.807-3.065,1.228-7.074-1.562-9.48l-23.708-20.441
            c-3.137-2.704-7.872-2.354-10.578,0.783c-2.705,3.137-2.354,7.873,0.783,10.578l23.708,20.441c0.01,0.008,0.02,0.015,0.03,0.023
            l4.898-5.688C322.827,363.532,325.011,364.785,327.303,365.627z"/>
    </g>
    <g fill="#F29F5C">
      <path d="M126.385,305.135l-5.713,7.544c-6.221,8.215-4.605,19.918,3.61,26.14l0,0
            c8.215,6.221,19.918,4.605,26.14-3.61l5.713-7.544c6.221-8.215,4.605-19.918-3.61-26.14l0,0
            C144.31,295.304,132.606,296.92,126.385,305.135z"/>
      <path d="M161.181,321.002l-10.759,14.207c-6.221,8.215-4.605,19.918,3.61,26.14l0,0
            c8.215,6.221,19.918,4.605,26.14-3.61l10.759-14.207c6.221-8.215,4.605-19.918-3.61-26.14l0,0
            C179.105,311.171,167.402,312.787,161.181,321.002z"/>
      <path d="M194.834,338.377l-14.663,19.362c-6.221,8.215-4.605,19.918,3.61,26.14l0,0
            c8.215,6.221,19.918,4.605,26.14-3.61l14.663-19.362c6.221-8.215,4.605-19.918-3.61-26.14l0,0
            C212.759,328.545,201.056,330.162,194.834,338.377z"/>
      <path d="M225.435,359.783l-15.514,20.485c-6.221,8.215-4.605,19.918,3.61,26.14l0,0
            c8.215,6.221,19.918,4.605,26.14-3.61l15.514-20.485c6.221-8.215,4.605-19.918-3.61-26.14l0,0
            C243.359,349.952,231.656,351.568,225.435,359.783z"/>
      <path d="M380.89,146.433l-47.25-26.591c-5.04-2.836-10.824-4.07-16.583-3.538l-74.606,6.9
            c-9.171,0.848-17.366,6.081-21.993,14.045l-52.584,90.508c-3.883,6.684-0.835,15.254,6.396,17.985l2.151,0.812
            c19.275,7.28,41.043,1.085,53.596-15.252l20.147-26.22c0,0,48.429,56.073,101.749-9.41"/>
    </g>
    <path d="M511.945,309.145l-24.713-200.751c-0.243-1.974-1.26-3.771-2.828-4.995
          c-1.568-1.224-3.557-1.774-5.532-1.532l-57.788,7.114c-15.009,1.848-25.716,15.562-23.868,30.57l19.844,161.2
          c1.708,13.877,13.559,24.076,27.2,24.076c1.112,0,2.239-0.068,3.37-0.207l57.788-7.114
          C509.528,316.999,512.451,313.256,511.945,309.145z"
          fill="#5C9CEE"/>
    <path d="M511.945,309.145l-2.713-22.036c-1.23,1.805-3.194,3.095-5.532,3.383l-60.577,7.457
          c-1.186,0.146-2.367,0.217-3.533,0.217c-10.2,0-19.441-5.442-24.553-13.84l2.022,16.424c1.708,13.877,13.559,24.076,27.2,24.076
          c1.112,0,2.239-0.068,3.37-0.207l57.788-7.114C509.528,316.999,512.451,313.256,511.945,309.145z"
          fill="#3580D3"/>
    <path d="M90.918,108.98l-57.788-7.114c-1.977-0.243-3.964,0.308-5.532,1.532
          c-1.568,1.224-2.585,3.021-2.828,4.995L0.057,309.145c-0.506,4.111,2.417,7.854,6.527,8.36l57.788,7.114
          c1.132,0.139,2.257,0.207,3.37,0.207c13.64,0,25.492-10.2,27.2-24.076l19.844-161.2C116.634,124.542,105.927,110.828,90.918,108.98z"
          fill="#ED5575"/>
    <path d="M0.057,309.145l2.713-22.036c1.23,1.805,3.194,3.095,5.532,3.383l60.577,7.457
          c1.186,0.146,2.367,0.217,3.533,0.217c10.2,0,19.441-5.442,24.553-13.84l-2.022,16.424c-1.708,13.877-13.559,24.076-27.2,24.076
          c-1.112,0-2.239-0.068-3.37-0.207l-57.788-7.114C2.473,316.999-0.449,313.256,0.057,309.145z"
          fill="#CC3A60"/>
    <g fill="#EBEEF2">
      <circle cx="464" cy="277.001" r="14.498"/>
      <circle cx="47.19" cy="277.001" r="14.498"/>
    </g>
  </symbol>
</svg>
