<svg xmlns="http://www.w3.org/2000/svg" viewBox="0 0 95.186 109.661">
  <defs>
    <style>
      .a {
        fill: #fc635e;
        stroke: #fe8682;
        stroke-width: 5px;
        fill-rule: evenodd;
      }

      .b {
        fill: #fff;
        stroke: #fff;
      }
    </style>
  </defs>
  <title>cart4</title>
  <path class="a" d="M2.5,28.859,47.593,2.885,92.686,28.859V80.806l-45.093,25.97L2.5,80.806Z"/>
  <g>
    <path class="b" d="M82.223,55.164l-4.61-4.61-2.41-6.97a1.206,1.206,0,0,0-1.06-.82H58.453v-3.62a1.232,1.232,0,0,0-1.2-1.21H13.813a1.21,1.21,0,1,0,0,2.42h42.23v24.13h-14.6a6.037,6.037,0,0,0-11.83,0h-8.56a1.205,1.205,0,1,0,0,2.41h8.56a6.036,6.036,0,0,0,11.83,0H63.4a6.031,6.031,0,0,0,11.82,0h6.16a1.2,1.2,0,0,0,1.2-1.2v-9.66A1.243,1.243,0,0,0,82.223,55.164Zm-46.69,14.15a3.62,3.62,0,1,1,3.62-3.62A3.625,3.625,0,0,1,35.533,69.314Zm33.78,0a3.62,3.62,0,1,1,3.62-3.62A3.625,3.625,0,0,1,69.313,69.314Zm10.86-4.83h-4.95a6.031,6.031,0,0,0-11.82,0h-4.95V45.174h14.82l2.15,6.42a.932.932,0,0,0,.29.46l4.46,4.49Z"/>
    <path class="b" d="M36.737,56.04a1.206,1.206,0,0,0-1.206-1.207H18.638a1.207,1.207,0,0,0,0,2.413H35.531A1.206,1.206,0,0,0,36.737,56.04Z"/>
    <path class="b" d="M39.154,48.8a1.208,1.208,0,0,1-1.21,1.21H25.874a1.205,1.205,0,0,1,0-2.41h12.07A1.206,1.206,0,0,1,39.154,48.8Z"/>
    <path class="b" d="M19.844,48.8a1.208,1.208,0,0,1-1.21,1.21h-2.41a1.205,1.205,0,1,1,0-2.41h2.41A1.206,1.206,0,0,1,19.844,48.8Z"/>
  </g>
</svg>
