<?xml-stylesheet type="text/css" href="../../css/style.min.css"?>  
<svg class="gRombus" xmlns="http://www.w3.org/2000/svg" xmlns:xlink="http://www.w3.org/1999/xlink" viewBox="0 0 810.4 550.946">
  <defs>
    <style>
      .a, .e, .i, .l {
        fill: none;
      }

      .b {
        font-size: 15px;
      }

      .b, .f {
        fill: #9f9f9f;
      }

      .b, .c, .f {
        font-family: MyriadPro-Regular, Myriad Pro;
      }

      .c, .f, .h {
        isolation: isolate;
      }

      .c {
        font-size: 24.01px;
        fill: #868686;
      }

      .d {
        fill: #fc635e;
      }

      .e {
        stroke: #adadad;
      }

      .f {
        font-size: 15px;
      }

      .g {
        clip-path: url(#a);
      }

      .i, .j {
        stroke: #fc635e;
      }

      .i {
        stroke-miterlimit: 10;
      }

      .i, .l {
        stroke-width: 2px;
      }

      .j {
        fill: #fcfcfc;
        stroke-width: 3px;
      }

      .k {
        fill: #fff;
        fill-rule: evenodd;
      }

      .l {
        stroke: #f9f7f7;
        stroke-linejoin: round;
      }
    </style>
    <clipPath id="a" transform="translate(-0.5 -0.048)">
      <polygon class="a" points="325 475.2 194 550.7 63 475.2 63 324.2 194 248.7 325 324.2 325 475.2 325 475.2"/>
    </clipPath>
  </defs>
  <g>
    <g>
      <text class="b" transform="translate(613.457 227.596)">Приёмно-сдаточные<tspan x="31.905" y="18">испытания</tspan></text>
      <text class="c" transform="translate(647.384 149.549)">Шаг <tspan class="d" x="46.242" y="0">4</tspan><tspan x="58.559" y="0"> </tspan></text>
      <path class="e" d="M548,151.1,679,75.6l131,75.5v151L679,377.6,548,302.1Z" transform="translate(-0.5 -0.048)"/>
    </g>
    <g>
      <text class="b" transform="translate(423.368 106.001)">Выполнние <tspan x="-26.227" y="18">электромонтажных</tspan><tspan x="18.09" y="36">работ</tspan></text>
      <text class="c" transform="translate(429.684 75.049)">Шаг <tspan class="d" x="46.242" y="0">3</tspan><tspan x="58.559" y="0"> </tspan></text>
      <path class="e" d="M374.9,50.1l86.5-49,86.5,50v100l-86.8,50.6-86.4-49.9Z" transform="translate(-0.5 -0.048)"/>
    </g>
    <g>
      <text class="f" transform="translate(308.422 256.557)">Закупка материалов</text>
      <text class="c" transform="translate(342.884 225.649)">Шаг <tspan class="d" x="46.242" y="0">2</tspan><tspan x="58.559" y="0"> </tspan></text>
      <path class="e" d="M288,201.7l86.5-50,86.5,50v100l-86.5,51-86.5-50Z" transform="translate(-0.5 -0.048)"/>
    </g>
    <g class="g">
      <image class="h" width="299" height="306" transform="translate(44.447 246.749) scale(0.994)" xlink:href="pictureR1.jpg"/>
    </g>
    <g>
      <text class="f" transform="translate(39.484 203.007)">Согласование работ</text>
      <text class="c" transform="translate(74.884 172.149)">Шаг <tspan class="d" x="46.242" y="0">1</tspan><tspan x="58.559" y="0"> </tspan></text>
      <path class="e" d="M19.5,148.4l87-50.2,87,50.2V248.9l-87,50.2-87-50.2Z" transform="translate(-0.5 -0.048)"/>
    </g>
  </g>
  <g>
    <polyline class="i" points="19 148.352 106 98.052 193 148.352 193 248.352 287.5 302.852 287.5 201.652 374.2 151.552 374.4 50.052 460.9 1.152 547.4 51.052 547.4 151.152 678.4 75.652 809.4 151.152 809.4 302.052 679.4 377.052"/>
    <g>
      <circle class="j" cx="676" cy="377.552" r="19"/>
      <g>
        <path class="d" d="M689.9,375.6l-5-7.1a1.8,1.8,0,0,0-.9-.6c-.4,0-.8,0-1,.3l-2,1.6a1.193,1.193,0,0,0-.5.9v.4h-1a7.06,7.06,0,0,0-2.4.6l-.6.3a8.086,8.086,0,0,0-2.5-.8,4.3,4.3,0,0,0-1.6,0,1.47,1.47,0,0,0-.5-1.4l-2-1.6a1.929,1.929,0,0,0-1-.3.961.961,0,0,0-.9.6l-5,7.1a1.546,1.546,0,0,0,.3,2l2,1.6a1.135,1.135,0,0,0,.8.3h.2a.864.864,0,0,0,.6-.3,5.623,5.623,0,0,0,.7,1.3,2.2,2.2,0,0,0,.2,1.4,1.7,1.7,0,0,0,1.6.9h.5a1.33,1.33,0,0,0,.3.8,1.7,1.7,0,0,0,1.6.9,1.929,1.929,0,0,0,1-.3,1.421,1.421,0,0,0,.2.6c.3.4.7.8,1.1.8h.7a1.6,1.6,0,0,0,.3.8,1.853,1.853,0,0,0,2.6.6l1.3-.9a1.6,1.6,0,0,0,.8-1.4,1.234,1.234,0,0,0,.8-.4,3.039,3.039,0,0,0,.5-.7,4.331,4.331,0,0,0,.5.1,1.344,1.344,0,0,0,.9-.2l.4-.2.2-.1.2-.2v-.1a1.75,1.75,0,0,0,2.5,0,2.176,2.176,0,0,0,.5-2.3c0-.3.1-.6.1-.8a1.258,1.258,0,0,0,1.3-.2l2-1.6a1.193,1.193,0,0,0,.5-.9A2.583,2.583,0,0,0,689.9,375.6Zm-7.2-3.1h0a1.439,1.439,0,0,0-.2-.3c-.1-.1-.1-.2-.2-.3h0l-.6-.8v-.3l2-1.6h.2l5,7.1v.2l-2.1,1.7h-.2l-2.7-3.9h0Zm-1.3,5.6v-.3c0-.2.1-.3.2-.5a.529.529,0,0,1,.8.1l2.5,3.3a.746.746,0,0,1,0,.9.6.6,0,0,1-.4.1.758.758,0,0,1-.4-.2Zm-10.2-7-1,1.4v.1l-3.9,5.6h-.2l-2-1.6c-.1,0-.1-.2,0-.3l5-7.1h.1l2,1.6A.188.188,0,0,1,671.2,371.1Zm-3.1,6.7,3.4-4.9a4.512,4.512,0,0,1,3.6.1,5.923,5.923,0,0,0-.6.4,4.987,4.987,0,0,0-1.7,1.9,1.937,1.937,0,0,0-.1,1.8,1.6,1.6,0,0,0,1.4.8,3.609,3.609,0,0,0,1.9-.5l2.3-1.5c.2-.1.5-.2.6-.1l.1.1a1.426,1.426,0,0,0,.4.8,2.1,2.1,0,0,0,.7.5v.1a1.674,1.674,0,0,0-1.5.4,3.039,3.039,0,0,0-.5.7,1.939,1.939,0,0,0-1.8.3,1.8,1.8,0,0,0-.9-.6,1.817,1.817,0,0,0-1.4.3l-.5.3a1.854,1.854,0,0,0-.2-.7c-.3-.4-.7-.8-1.1-.8a1.735,1.735,0,0,0-1.4.3l-2.4,1.7h-.1A2.3,2.3,0,0,1,668.1,377.8Zm15.3-1.1a2.1,2.1,0,0,0-1.4-.7,1.7,1.7,0,0,0-.7.1c-.8-.1-.8-.5-.8-.5h0a1.23,1.23,0,0,0-.8-1,1.89,1.89,0,0,0-1.7.2l-2.3,1.5a2.421,2.421,0,0,1-1.3.4c-.2,0-.3,0-.4-.1s0-.3.1-.7a4.16,4.16,0,0,1,1.3-1.4h0a10.142,10.142,0,0,1,2.2-1.3,4.58,4.58,0,0,1,3.8-.2l3.4,4.9a3.553,3.553,0,0,1,.2,1ZM669,381.3a.749.749,0,0,1-.1-.5c0-.2.1-.3.3-.4l2.4-1.7c.1,0,.2-.1.3-.1a.55.55,0,0,1,.5.3.631.631,0,0,1-.2.9l-2.4,1.7h0a.6.6,0,0,1-.4.1A1.38,1.38,0,0,1,669,381.3Zm2.3,1.6a.631.631,0,0,1,.2-.9l3.4-2.3c.1,0,.2-.1.3-.1h.1a.536.536,0,0,1,.4.3.631.631,0,0,1-.2.9l-1.9,1.3a.349.349,0,0,1-.2.1l-1.3.9h0a.6.6,0,0,1-.4.1A1.38,1.38,0,0,1,671.3,382.9Zm2.7.6c0-.1.1-.2.2-.3l1.5-1h.3a.536.536,0,0,1,.4.3.749.749,0,0,1,.1.5c0,.1-.1.2-.1.3l-1.4,1h0a.6.6,0,0,1-.4.1.536.536,0,0,1-.4-.3C674,383.9,673.9,383.7,674,383.5Zm2.2,2.1a.755.755,0,0,1,.1-.8l1.4-1a.6.6,0,0,1,.4-.1.536.536,0,0,1,.4.3.631.631,0,0,1-.2.9l-1.3.9a.6.6,0,0,1-.4.1C676.4,385.9,676.2,385.8,676.2,385.6Zm2.4-3.1-1.4-1.7a.6.6,0,0,1-.1-.4.764.764,0,0,1,.2-.5c.1-.1.2-.1.4-.1a.758.758,0,0,1,.4.2l1.8,2.3a.749.749,0,0,1,.1.5c0,.2-.1.3-.2.5a.367.367,0,0,1-.3.1A1.95,1.95,0,0,0,678.6,382.5Zm1-3.8c.1-.1.2-.1.4-.1a.52.52,0,0,1,.4.2l1.9,2.5v.3c0,.2-.1.3-.2.5-.1.1-.2.1-.4.1a.758.758,0,0,1-.4-.2l-1.8-2.3a.749.749,0,0,1-.1-.5C679.4,379,679.5,378.9,679.6,378.7Z" transform="translate(-0.5 -0.048)"/>
        <path class="d" d="M666.9,376.1a1.08,1.08,0,0,0-.3-.7,1.012,1.012,0,0,0-.7-.4h0a1.284,1.284,0,0,0-1.2,1.1h0a1.012,1.012,0,0,0,.4.7,1.217,1.217,0,0,0,1.6,0,.855.855,0,0,0,.3-.6h0v-.1Zm-1.3.1c0-.1,0-.1.1-.2a.349.349,0,0,1,.2-.1.319.319,0,0,1,.3.3.3.3,0,1,1-.6,0Z" transform="translate(-0.5 -0.048)"/>
        <path class="d" d="M687,377.5a.908.908,0,0,0,.7-.3,1.628,1.628,0,0,0,.3-.6h0v-.3h0a.55.55,0,0,0-.3-.5.908.908,0,0,0-.7-.3h0a1.018,1.018,0,0,0-1.1.9h0a1.2,1.2,0,0,0,1.1,1.1Zm0-.8a.319.319,0,0,1-.3-.3c0-.1,0-.1.1-.2a.349.349,0,0,1,.2-.1.319.319,0,0,1,.3.3Q687.15,376.7,687,376.7Z" transform="translate(-0.5 -0.048)"/>
      </g>
    </g>
    <g>
      <circle class="d" cx="547.5" cy="150.452" r="19"/>
      <path class="k" d="M556.8,145.9h-4.9c-.2,0-.3-.1-.2-.4a5.813,5.813,0,0,0,.6-3.9c-.1-1.6-.4-2.2-.9-2.2-.7,0-1.7,1.6-2.7,3.3a15.511,15.511,0,0,1-4.8,4.4c-.2.1-.5.3-.7.4l-2.6,1.1a.675.675,0,0,0-.4.6v8.7a.6.6,0,0,0,.3.6l1.1.7a1.854,1.854,0,0,0,.7.2,4.707,4.707,0,0,1,2.6,1.1,3.171,3.171,0,0,1,.6.5,1.922,1.922,0,0,0,1.2.4h7.8a2.767,2.767,0,0,0,2.5-2.1c0-.2.1-.6.1-.9l1.7-9.6a1.388,1.388,0,0,0,0-.9A1.944,1.944,0,0,0,556.8,145.9Zm-17.7,1.9h-1.4a.6.6,0,0,0-.6.7v10.1a.669.669,0,0,0,.6.7h1.4a.6.6,0,0,0,.6-.7V148.5a.669.669,0,0,0-.6-.7Z" transform="translate(-0.5 -0.048)"/>
    </g>
    <g>
      <circle class="d" cx="374.8" cy="52.752" r="19"/>
      <path class="k" d="M382,49.8c0,3-3.3,5.9-3.3,9H372c0-2.9-3.3-6-3.3-9,0-3.3,3-6,6.7-6S382,46.5,382,49.8Zm-4.2,12h-5a.752.752,0,1,0-.1,1.5h.4a2.561,2.561,0,0,0,3.4,1.3,2.735,2.735,0,0,0,1.3-1.3h0a.752.752,0,0,0,.1-1.5Zm0-2.3h-5a.752.752,0,1,0-.1,1.5h5.2a.752.752,0,0,0,.1-1.5ZM366.2,45.9l1.5.8a5.67,5.67,0,0,1,.8-1.3l-1.5-.8Zm9.9-3.5V40.8h-1.7v1.6a4.845,4.845,0,0,1,1.7,0Zm-4.2.6-.9-1.4-1.4.8.9,1.4A3.924,3.924,0,0,1,371.9,43Zm12.5,2.9-.8-1.3-1.5.8a5.67,5.67,0,0,1,.8,1.3ZM381,42.4l-1.4-.8-.9,1.4a6.376,6.376,0,0,1,1.4.8Zm-14,7.4a2.2,2.2,0,0,1,.1-.8h-1.8v1.5h1.8A1.7,1.7,0,0,1,367,49.8Zm16.5-.8c0,.2.1.5.1.8a2.2,2.2,0,0,1-.1.8h1.8V49.1h-1.8Zm-1.3,5.2,1.4.7.8-1.3-1.5-.8C382.7,53.3,382.4,53.8,382.2,54.2Zm-16-.6.8,1.3,1.4-.7c-.2-.5-.5-.9-.7-1.4Z" transform="translate(-0.5 -0.048)"/>
    </g>
    <g>
      <circle class="d" cx="287.5" cy="205.052" r="19"/>
      <g>
        <path class="k" d="M290.6,204.2c-.4-.3-3.5-3-3.5-3l-5.8,4.5.3.6s5.1-4.1,5.4-4.3c.3.3,3.6,3.1,3.6,3.1l3.8-3.5-.4-.5S290.9,203.9,290.6,204.2Z" transform="translate(-0.5 -0.048)"/>
        <path class="l" d="M297.7,210.7H278.3a.789.789,0,0,1-.8-.8V196.2a.789.789,0,0,1,.8-.8h19.4a.789.789,0,0,1,.8.8v13.7C298.6,210.3,298.2,210.7,297.7,210.7Z" transform="translate(-0.5 -0.048)"/>
        <polygon class="k" points="292.6 214.752 282.5 214.752 285 212.152 290 212.152 292.6 214.752"/>
        <path class="k" d="M281.5,204.9a.9.9,0,1,1-.9.9h0a.9.9,0,0,1,.9-.9Z" transform="translate(-0.5 -0.048)"/>
        <path class="k" d="M287,200.7a.9.9,0,1,1-.9.9h0A.9.9,0,0,1,287,200.7Z" transform="translate(-0.5 -0.048)"/>
        <path class="k" d="M290.6,203.6a.9.9,0,1,1-.9.9h0A.9.9,0,0,1,290.6,203.6Z" transform="translate(-0.5 -0.048)"/>
        <path class="k" d="M294.2,200.4a.9.9,0,1,1-.9.9h0A.9.9,0,0,1,294.2,200.4Z" transform="translate(-0.5 -0.048)"/>
      </g>
    </g>
    <g>
      <circle class="d" cx="19" cy="151.652" r="19"/>
      <path class="k" d="M16.6,144.9a1.951,1.951,0,1,1-2,1.9A1.866,1.866,0,0,1,16.6,144.9Zm4.4,8a1.251,1.251,0,1,1-.1,2.5,1.216,1.216,0,0,1-1.2-1.2,1.261,1.261,0,0,1,1.3-1.3Zm7.2-2.9c1.6-7.7-4.9-11.2-12.2-10.1s-7,5.3-7.4,7.3c-.9,5,4.6,10.6,4.6,10.6l-.3,5.9h8.8l.7-2.7s.4.6,2.7.8,2-2.5,2-2.5,1.5-.6,1.5-1.1a2.445,2.445,0,0,0-.9-1.1,2,2,0,0,0,1.3-.2c.3-.4-.4-1.8-.4-1.8a2.732,2.732,0,0,0,1.9-.8c.6-.7-2.3-2.9-2.3-4.3Zm-12.6,1.1a3.217,3.217,0,0,0-.1-.8c-.2-.1-.4-.1-.6-.2-.2.2-.7.6-.7.6l-.1.1-.8-.1L12,149.2v-.9s.5-.4.8-.6a1.268,1.268,0,0,1-.1-.6c-.3-.1-1-.4-1-.4l-.3-.7v-.1l.8-1.8.9-.2s.6.3.9.4c.2-.1.4-.3.6-.4,0-.3-.1-1-.1-1l.7-.6,2-.2.7.6a3.217,3.217,0,0,0,.1.8c.3.1.5.2.8.3l.7-.5h.9l1.3,1.5v.9l-.8.7c0,.2.1.4.1.6.3.2,1,.6,1,.6l.2.9-1,1.7-.9.2a5.562,5.562,0,0,0-.8-.4c-.2.1-.3.2-.5.3,0,.3.1,1,.1,1l-.7.6-2,.2Zm8.2,4.9-.6.1s-.3-.2-.5-.3c-.1.1-.2.1-.3.2a3.536,3.536,0,0,0,.1.6l-.4.4-1.3.1-.4-.4v-.5c-.1,0-.3-.1-.4-.1a2.736,2.736,0,0,0-.5.4h-.6l-.8-.9V155l.5-.4c0-.1-.1-.3-.1-.4l-.6-.3-.2-.5v-.1l.5-1.1.6-.1.5.2a.52.52,0,0,1,.4-.2,3.536,3.536,0,0,0-.1-.6l.4-.4,1.3-.1.4.4v.5c.2,0,.3.1.5.2a3.987,3.987,0,0,1,.4-.3h.6l.8.9v.6a2.736,2.736,0,0,1-.5.4v.4l.7.4.2.6Z" transform="translate(-0.5 -0.048)"/>
    </g>
  </g>

</svg>
