<svg xmlns="http://www.w3.org/2000/svg" viewBox="0 0 95.186 109.661">
  <defs>
    <style>
      .a {
        fill: #fc635e;
        stroke: #fe8682;
        stroke-width: 5px;
        fill-rule: evenodd;
      }

      .b, .c {
        fill: #fff;
        stroke: #fff;
        stroke-miterlimit: 10;
      }

      .c {
        stroke-width: 0.5px;
      }
    </style>
  </defs>
  <title>cart3</title>
  <path class="a" d="M2.5,28.859,47.593,2.885,92.686,28.859V80.806l-45.093,25.97L2.5,80.806Z"/>
  <g>
    <path class="b" d="M62.5,63.99l-5.457,5.168L54.8,66.829a1.113,1.113,0,1,0-1.6,1.553L56.2,71.509a1.123,1.123,0,0,0,.8.333,1.188,1.188,0,0,0,.776-.311l6.255-5.944a1.117,1.117,0,0,0,.044-1.574A1.1,1.1,0,0,0,62.5,63.99Z"/>
    <path class="c" d="M72.5,65.476l-.155-.931H69.991a10.534,10.534,0,0,0-1.065-2.528c.333-.333.644-.666.976-.976l.688-.666-.555-.776A14.931,14.931,0,0,0,66.8,56.361l-.776-.555-.665.688-.621.621-.355.355a11.632,11.632,0,0,0-2.551-1.043v-2.35l-.931-.156a13.807,13.807,0,0,0-4.481,0l-.975.178.044,1v1.33a12.09,12.09,0,0,0-2.551,1.043l-.377-.377c-.2-.2-.421-.4-.621-.621l-.665-.688-.776.555a13.21,13.21,0,0,0-3.238,3.238l-.555.776.688.666c.332.332.665.643.976.975A13.27,13.27,0,0,0,47.3,64.523H44.951l-.155.931a13.23,13.23,0,0,0-.178,2.285,15.829,15.829,0,0,0,.178,2.284l.133.843,1,.089H47.3a11.845,11.845,0,0,0,1.065,2.572l-.444.444-.4.4-.178.178-.621.665.533.732a13.735,13.735,0,0,0,3.216,3.194l.709.51.666-.577.111-.111c.243-.266.487-.51.754-.754l.2-.2a12.139,12.139,0,0,0,2.551,1.042v1.375l.066,1,.887.133a14.19,14.19,0,0,0,4.481,0l.953-.2-.022-.976V79.05a11.678,11.678,0,0,0,2.551-1.042l.177.177.754.754.754.71.732-.532a14.19,14.19,0,0,0,3.216-3.194l.532-.754-.621-.666-.177-.177-.4-.4-.444-.444a11.263,11.263,0,0,0,1.065-2.573h1.286l1.087-.088.133-.843a13.054,13.054,0,0,0,.177-2.285A10.942,10.942,0,0,0,72.5,65.476Zm-2.085,3.261H69.193l-1.021.111-.155.8a9.239,9.239,0,0,1-1.442,3.438l-.421.643.444.621a2.612,2.612,0,0,0,.244.288l.8.8a13.32,13.32,0,0,1-1.375,1.375l-.111-.111-.688-.688a1.694,1.694,0,0,0-.31-.244l-.621-.4-.621.4a9.567,9.567,0,0,1-3.438,1.42l-.687.133-.178.688a1.751,1.751,0,0,0-.044.488v1.086a13.177,13.177,0,0,1-1.885,0V78.5a3.2,3.2,0,0,0-.045-.488l-.177-.688-.688-.133a9.5,9.5,0,0,1-3.437-1.42l-.621-.4-.621.4a1.583,1.583,0,0,0-.289.244c-.222.244-.465.466-.687.71l-.111.111a11.447,11.447,0,0,1-1.375-1.375l.8-.8a1.389,1.389,0,0,0,.244-.289l.422-.621-.422-.621a9.367,9.367,0,0,1-1.441-3.438l-.156-.8-.953-.111H46.836c-.022-.333-.044-.643-.044-.976s.022-.665.044-1c.355,0,.71,0,1.043.022a4.353,4.353,0,0,0,.532-.044l.665-.177.133-.688a9.138,9.138,0,0,1,1.42-3.393l.4-.6-.377-.621a1.888,1.888,0,0,0-.377-.444l-.288-.288-.4-.4a10.493,10.493,0,0,1,1.4-1.4c.244.244.51.488.754.755a2.1,2.1,0,0,0,.532.4l.555.244.51-.333a9.577,9.577,0,0,1,3.415-1.4l.688-.133.177-.666a1.633,1.633,0,0,0,.045-.465V56.073a13.177,13.177,0,0,1,1.885,0v1.109a3.035,3.035,0,0,0,.044.465l.178.666.687.133a9.589,9.589,0,0,1,3.416,1.4l.51.333.554-.244a1.815,1.815,0,0,0,.532-.377c.244-.244.488-.51.755-.754a10.419,10.419,0,0,1,1.4,1.4l-.444.443-.244.244a3.439,3.439,0,0,0-.377.444l-.4.621.4.6a9.518,9.518,0,0,1,1.42,3.393l.133.688.687.177a1.363,1.363,0,0,0,.533.045c.354-.023.709-.023,1.042-.023.022.333.044.666.044,1A4.067,4.067,0,0,1,70.412,68.737Z"/>
    <path class="b" d="M33.263,40.614a6.377,6.377,0,1,0-6.388-6.388A6.389,6.389,0,0,0,33.263,40.614Zm0-10.535a4.148,4.148,0,1,1-4.148,4.147A4.155,4.155,0,0,1,33.263,30.079Z"/>
    <path class="b" d="M40.937,49.2a1.12,1.12,0,0,0-1.2,1.043l-.976,14.283a.978.978,0,0,1-.022.111l-.909,13.884a1.115,1.115,0,0,1-1.109,1.042h-6.9a1.1,1.1,0,0,1-1.109-1.042l-.909-13.884a1.114,1.114,0,0,0-.8-1c-1.286-.4-1.286-.4-1.4-1.819L24.79,47.09v-.111c1.22-.355,3.261-1.02,4.281-1.33l3.438,3.215a1.125,1.125,0,0,0,1.53,0l3.482-3.26,10.2,2.307a.839.839,0,0,0,.466,0l9.626-1.974a1.109,1.109,0,1,0-.444-2.174l-9.381,1.93L37.432,43.3a1.156,1.156,0,0,0-1.02.266l-3.149,2.95-3.15-2.95A1.067,1.067,0,0,0,29,43.32s-3.26,1.042-4.923,1.53a2.07,2.07,0,0,0-1.553,2.085V47.2l.821,14.527.022.244c.155,2.218.532,2.928,2.24,3.549l.865,13.13A3.384,3.384,0,0,0,29.825,81.8h6.9a3.368,3.368,0,0,0,3.349-3.149l.909-13.773A.2.2,0,0,1,41,64.767l1-14.394A1.147,1.147,0,0,0,40.937,49.2Z"/>
  </g>
</svg>
