<?xml version="1.0" encoding="UTF-8"?>
<svg viewBox="0 0 47 32" xmlns="http://www.w3.org/2000/svg">
  <path fill="black" fill-rule="evenodd" d="M0 15.55c0 8.17 4.023 16.44 11.713 16.44H31.3a16 16 0 000-32H11.713C3.665-.003 0 8.056 0 15.55zm2.954 0c0-6.245 2.708-12.547 8.759-12.547h7.369c4.117 10.975 1.017 22.621-.048 25.976h-7.321c-5.689 0-8.759-6.919-8.759-13.429zm41.084.441A12.88 12.88 0 0131.3 28.979h-9.161a49.585 49.585 0 002-13.736 38.285 38.285 0 00-1.92-12.24h9.076a12.879 12.879 0 0112.743 12.988zm-26.953 1.317H6.377a1.506 1.506 0 010-3.012h10.708a1.506 1.506 0 010 3.012z" />
</svg>