<svg xmlns="http://www.w3.org/2000/svg" width="47" height="32" viewBox="0 0 47 32">
  <defs>
    <style>
      .cls-1 {
        fill: #fff;
        fill-rule: evenodd;
        opacity: 0.2;
      }
    </style>
  </defs>
  <path id="Forma_1" data-name="Forma 1" class="cls-1" d="M740.005,439.553c0,8.17,4.023,16.44,11.713,16.44h19.587a16,16,0,0,0,0-32H751.718C743.67,424,740.005,432.059,740.005,439.553Zm2.954,0c0-6.245,2.708-12.547,8.759-12.547h7.369c4.117,10.975,1.017,22.621-.048,25.976h-7.321C746.029,452.982,742.959,446.063,742.959,439.553Zm41.084,0.441a12.88,12.88,0,0,1-12.738,12.988h-9.161a49.585,49.585,0,0,0,2-13.736,38.285,38.285,0,0,0-1.92-12.24h9.076A12.879,12.879,0,0,1,784.043,439.994Zm-26.953,1.317H746.382a1.506,1.506,0,0,1,0-3.012H757.09A1.506,1.506,0,0,1,757.09,441.311Z" transform="translate(-740 -424)"/>
</svg>
