<svg xmlns="http://www.w3.org/2000/svg" viewBox="0 0 95.186 109.661">
  <defs>
    <style>
      .a {
        fill: #fc635e;
        stroke: #fe8682;
        stroke-width: 5px;
        fill-rule: evenodd;
      }
      .b, .c {
        fill: #fff;
      }

      .b {
        stroke: #fff;
        stroke-miterlimit: 10;
      }
    </style>
  </defs>
  <title>cart1</title>
  <path class="a" d="M2.5,28.859,47.593,2.885,92.686,28.859V80.806l-45.093,25.97L2.5,80.806Z"/>
  <g>
    <path class="b" d="M73.13,28.858a.874.874,0,0,0-1.237,0L68.652,32.1H48.3L22.7,57.9a3.087,3.087,0,0,0,0,4.363L40.6,80.158a3.09,3.09,0,0,0,4.372-.008L69.888,54.557V33.335l3.242-3.241A.875.875,0,0,0,73.13,28.858ZM68.14,53.847,43.724,78.922a1.338,1.338,0,0,1-1.89,0L23.94,61.028a1.338,1.338,0,0,1,0-1.893L49.024,33.848H66.9l-4.225,4.225a4.387,4.387,0,1,0,1.236,1.237l4.226-4.226Zm-5.246-12.13a2.623,2.623,0,1,1-2.623-2.623,2.583,2.583,0,0,1,1.123.263L59.653,41.1a.874.874,0,1,0,1.236,1.237l1.742-1.742A2.588,2.588,0,0,1,62.894,41.717Z"/>
    <path class="c" d="M58.3,55.952l-9.273,9.274a.874.874,0,1,0,1.236,1.236l9.273-9.274A.874.874,0,0,0,58.3,55.952Z"/>
    <path class="c" d="M61.39,52.856a.912.912,0,0,0-.254.62.867.867,0,0,0,.875.875.848.848,0,0,0,.611-.254.862.862,0,0,0,.263-.621.881.881,0,0,0-.263-.62A.9.9,0,0,0,61.39,52.856Z"/>
    <path class="c" d="M53.973,45.441a.874.874,0,1,0-1.236-1.236l-9.274,9.274A.874.874,0,1,0,44.7,54.715Z"/>
    <path class="c" d="M50.882,55.952a.874.874,0,0,0,1.236,0L58.3,49.769a.874.874,0,1,0-1.236-1.236l-6.183,6.182A.874.874,0,0,0,50.882,55.952Z"/>
    <path class="c" d="M45.936,59.661,44.7,60.9a.874.874,0,1,0,1.236,1.236L47.172,60.9a.874.874,0,1,0-1.236-1.236Z"/>
    <path class="c" d="M36.662,53.734a.868.868,0,0,0,.618-.256l9.273-9.273a.874.874,0,0,0-1.236-1.236l-9.273,9.273a.874.874,0,0,0,.618,1.492Z"/>
    <path class="c" d="M49.027,41.367a.882.882,0,0,0,.621-.254.9.9,0,0,0,.253-.621.884.884,0,0,0-.262-.62.875.875,0,0,0-1.487.62.919.919,0,0,0,.254.621A.88.88,0,0,0,49.027,41.367Z"/>
    <path class="c" d="M40.992,55.951a.863.863,0,0,0-.254.621.829.829,0,0,0,.254.611.856.856,0,0,0,.62.263.878.878,0,0,0,.612-.254.863.863,0,0,0,0-1.241A.9.9,0,0,0,40.992,55.951Z"/>
    <path class="c" d="M49.648,58.424A.882.882,0,0,0,49.9,57.8a.875.875,0,1,0-1.749,0,.9.9,0,0,0,.254.621.886.886,0,0,0,1.242,0Z"/>
    <path class="c" d="M42.917,70.243a4.354,4.354,0,0,0,.712-2.773,3.01,3.01,0,0,0-1.119-2.1,3.2,3.2,0,0,0-2.394-.683l-2.45.306L34.3,61.63a2.618,2.618,0,0,1,2.978.5A.874.874,0,1,0,38.517,60.9a4.379,4.379,0,0,0-5.5-.555l-.681-.682A.874.874,0,1,0,31.1,60.9l.683.683a4.357,4.357,0,0,0-.711,2.773,3.007,3.007,0,0,0,1.118,2.1,3.2,3.2,0,0,0,2.395.685l2.45-.306,3.354,3.354a2.69,2.69,0,0,1-2.97-.5.874.874,0,1,0-1.236,1.236,4.369,4.369,0,0,0,5.5.556l.544.544a.874.874,0,0,0,1.237-1.236ZM34.366,65.4A1.431,1.431,0,0,1,33.29,65.1a1.279,1.279,0,0,1-.479-.888,2.629,2.629,0,0,1,.258-1.34l2.4,2.4Zm5.966,1.017a1.418,1.418,0,0,1,1.075.307,1.275,1.275,0,0,1,.479.888,2.6,2.6,0,0,1-.259,1.34l-2.4-2.4Z"/>
  </g>
</svg>
