<svg xmlns="http://www.w3.org/2000/svg" viewBox="0 0 95.186 109.661">
  <defs>
    <style>
      .a {
        fill: #fc635e;
        stroke: #fe8682;
        stroke-width: 5px;
        fill-rule: evenodd;
      }

      .b {
        fill: #fcfcfc;
      }
    </style>
  </defs>
  <title>cart2</title>
  <path class="a" d="M2.5,29.253,47.6,3.279,92.69,29.253V81.2L47.6,107.17,2.5,81.2Z" transform="translate(-0.004 -0.394)"/>
  <g>
    <path class="b" d="M29.5,64.66a4.33,4.33,0,0,0,1.169.814,26.274,26.274,0,0,0,1.836,8.407,8.832,8.832,0,0,1,.692,3.386v3.065a2.6,2.6,0,0,0,2.6,2.6h10.39a2.6,2.6,0,0,0,2.6-2.6,6.516,6.516,0,0,1,1.437-4.078l5.654-7.048c.095-.1.182-.217.268-.321s.173-.181.251-.285.165-.234.243-.355l.216-.312c.078-.13.13-.26.2-.381s.121-.225.173-.338.113-.277.165-.415l.13-.338a2.33,2.33,0,0,1,.112-.45c.035-.156.061-.217.087-.329a2.605,2.605,0,0,1,.061-.476c.06-.156,0-.217.051-.329a1.9,1.9,0,0,0,0-.546v-.268a6.334,6.334,0,0,0-.077-.814h0l-.07-.416-.866-5.61a6.892,6.892,0,0,0-.519-1.732h0a.594.594,0,0,0-.052-.1A6.928,6.928,0,0,0,52.4,51.854l-2.7-.961,3-2.944,3.013-3.117a.87.87,0,0,1,.779-.225,8.664,8.664,0,0,0,10.4-9.429,1.732,1.732,0,0,0-2.961-1.013l-2.407,2.459a.866.866,0,0,1-1.225,0l-.005,0-2.424-2.415a.9.9,0,0,1,.009-1.256l2.415-2.459a1.717,1.717,0,0,0-1.021-2.926,8.8,8.8,0,0,0-3.464.329,8.657,8.657,0,0,0-5.922,10.069.866.866,0,0,1-.234.806l-5.039,4.935a3.463,3.463,0,0,0-6.139,1.342,3.463,3.463,0,0,0-4.407,3.333,3.348,3.348,0,0,0,.217,1.2h-.208A3.463,3.463,0,0,0,31.546,54.6a3.462,3.462,0,0,0-2.3,4.234,4.328,4.328,0,0,0,.259,5.8Zm.719-4.182.156.113a2.146,2.146,0,0,0,.268.216,3.591,3.591,0,0,0,.537.3L34.645,62.6a3.092,3.092,0,0,0,.477.165l-.7.693a2.7,2.7,0,0,1-.355.285l-.121.078-.286.147-.155.07-.33.095h-.389a2.793,2.793,0,0,1-.987-.121h0a2.53,2.53,0,0,1-1.013-.615,2.6,2.6,0,0,1-.511-2.961ZM53.5,54.53A5.189,5.189,0,0,1,55.07,57.5l.979,6.06a4.887,4.887,0,0,1,.06.615,5.253,5.253,0,0,1-1.5,3.879l-.061.061-5.68,7.022a8.219,8.219,0,0,0-1.818,5.195.866.866,0,0,1-.866.866H35.8a.866.866,0,0,1-.866-.866V77.267a10.465,10.465,0,0,0-.866-4.052,24.421,24.421,0,0,1-1.679-7.3h.147a3.874,3.874,0,0,0,.537-.052,1.946,1.946,0,0,0,.216,0,3.745,3.745,0,0,0,.606-.165l.217-.061a4.864,4.864,0,0,0,.632-.32l.138-.069a4.49,4.49,0,0,0,.684-.546l4.858-4.77a3.248,3.248,0,0,0,1.471-.866l.052-.044a4.007,4.007,0,0,0,.355-.415,3.292,3.292,0,0,0,.572-1.3,3.517,3.517,0,0,0,.8-.078A5.916,5.916,0,0,0,45.893,58.6l2.06.788a1.306,1.306,0,0,1,.866,1.074,1.341,1.341,0,0,1-.866,1.4c-4.641,1.732-7.264,4.711-7.792,8.823a.865.865,0,0,0,.718.987h.113a.866.866,0,0,0,.866-.753c.467-3.463,2.658-5.905,6.7-7.42a3.091,3.091,0,0,0,1.957-3.238A3.03,3.03,0,0,0,48.6,57.82l-2.087-.866a4.324,4.324,0,0,1-1.922-1.342,2.893,2.893,0,0,1-.3-.424c-.051-.078-.1-.156-.147-.234a3.738,3.738,0,0,1-.242-.5c-.043-.113-.087-.225-.121-.346s-.061-.217-.087-.321-.043-.26-.061-.389a2.383,2.383,0,0,1,0-.338.452.452,0,0,1,0-.1,2.91,2.91,0,0,1,0-.476,1.249,1.249,0,0,1,0-.173.807.807,0,0,1,0-.139,4.328,4.328,0,0,1,.165-.71.865.865,0,0,1,1.082-.545l6.858,2.58A5.31,5.31,0,0,1,53.5,54.53ZM50.837,39.966a2.6,2.6,0,0,0,.7-2.363,6.744,6.744,0,0,1,.069-3.161,6.869,6.869,0,0,1,4.658-4.883,6.722,6.722,0,0,1,2.8-.26l-2.416,2.459a2.6,2.6,0,0,0-.006,3.674l.006.006L59.1,37.906a2.665,2.665,0,0,0,3.679,0l2.459-2.5h0a7.013,7.013,0,0,1-.251,2.771,6.84,6.84,0,0,1-4.944,4.7,6.732,6.732,0,0,1-3.186.069,2.6,2.6,0,0,0-2.372.7l-6.148,6.061v-.052a3.117,3.117,0,0,0-.3-.649h0l-2.45-3.819ZM40.931,44.3a1.732,1.732,0,0,1,2.39.536h0l.424.667h0l2.6,4.1-.866-.32a2.547,2.547,0,0,0-1.983.13,2.2,2.2,0,0,0-.242.147l-3.074-3.42a1.732,1.732,0,0,1,.753-1.827Zm-4.623,2.848a1.732,1.732,0,0,1,2.449-.019l.018.019,3.4,3.784c-.044.138-.078.277-.122.424a6.064,6.064,0,0,0,.364,4.009l-4.719-4.407-1.385-1.385a1.731,1.731,0,0,1,0-2.442ZM33.2,52.019a1.733,1.733,0,0,1,2.416-.39l.866.658,4.719,4.39h0a1.73,1.73,0,0,1-.321.866h0a1.5,1.5,0,0,1-.19.216h0a1.841,1.841,0,0,1-1.8.347L34.2,54.816h0l-.65-.477A1.732,1.732,0,0,1,33.2,52.019Zm-2.242,5.2a1.757,1.757,0,0,1,2.286-.9h.069l4.381,3.074a1.734,1.734,0,0,1-.13.667,1.678,1.678,0,0,1-.9.978,1.729,1.729,0,0,1-1.325,0l-3.463-1.5h0a1.5,1.5,0,0,1-.286-.164h0a1.876,1.876,0,0,1-.519-.65h0l-.052-.095a1.73,1.73,0,0,1-.044-1.385Z" transform="translate(-0.004 -0.394)"/>
    <path class="b" d="M38.871,37.715a.441.441,0,0,0,.2.58l1.732.866a.444.444,0,0,0,.19.043.432.432,0,0,0,.19-.822l-1.731-.866A.441.441,0,0,0,38.871,37.715Z" transform="translate(-0.004 -0.394)"/>
    <path class="b" d="M41.858,36.607a.408.408,0,0,0,.3-.13.415.415,0,0,0,.018-.587l-.018-.019-1.732-1.732a.429.429,0,0,0-.606.606l1.732,1.732A.408.408,0,0,0,41.858,36.607Z" transform="translate(-0.004 -0.394)"/>
    <path class="b" d="M44.888,36.174v-.866a.433.433,0,1,0-.866,0v.866a.433.433,0,1,0,.866,0Z" transform="translate(-0.004 -0.394)"/>
  </g>
</svg>
